<?xml version="1.0" encoding="UTF-8" standalone="no"?>
<!-- Created with Inkscape (http://www.inkscape.org/) -->

<svg
   version="1.1"
   id="svg2"
   width="2829.3333"
   height="2829.3333"
   viewBox="0 0 2829.3333 2829.3333"
   sodipodi:docname="1037_U1RVRElPIEtBVCAwOTYtODE.eps"
   xmlns:inkscape="http://www.inkscape.org/namespaces/inkscape"
   xmlns:sodipodi="http://sodipodi.sourceforge.net/DTD/sodipodi-0.dtd"
   xmlns="http://www.w3.org/2000/svg"
   xmlns:svg="http://www.w3.org/2000/svg">
  <defs
     id="defs6" />
  <sodipodi:namedview
     id="namedview4"
     pagecolor="#ffffff"
     bordercolor="#000000"
     borderopacity="0.25"
     inkscape:showpageshadow="2"
     inkscape:pageopacity="0.0"
     inkscape:pagecheckerboard="0"
     inkscape:deskcolor="#d1d1d1" />
  <g
     id="g8"
     inkscape:groupmode="layer"
     inkscape:label="ink_ext_XXXXXX"
     transform="matrix(1.3333333,0,0,-1.3333333,0,2829.3333)">
    <g
       id="g10"
       transform="scale(0.1)">
      <path
         d="m 12382.7,14797.3 c 0,-697.4 -2561.33,-696.7 -3715.71,-696.7 -1154.33,0 -3663.16,-0.7 -3663.16,696.7 0,697.4 1186.05,1954.6 3021.64,2504.9 4074.73,1221.4 7126.23,-785 7840.63,-1111.5 280.9,-128.4 -3483.4,-1160.5 -3483.4,-1393.4"
         style="fill:#ef3120;fill-opacity:1;fill-rule:nonzero;stroke:none"
         id="path12" />
      <path
         d="m 13263.4,11149.3 c 173,-3538.2 -2070.3,-4092.9 -4624.03,-4092.9 -2553.67,0 -4623.9,1335.3 -4623.9,4092.9 0,2757.9 2070.23,4093 4623.9,4093 2553.73,0 4456.43,-667.6 4624.03,-4093"
         style="fill:#f0efef;fill-opacity:1;fill-rule:nonzero;stroke:none"
         id="path14" />
      <path
         d="m 12730.9,10704.2 c 150,-3538.3 -1793.5,-4093 -4005.86,-4093 -2212.38,0 -4005.94,1335.4 -4005.94,4093 0,2757.7 1793.56,4093.1 4005.94,4093.1 2212.36,0 3860.86,-667.6 4005.86,-4093.1"
         style="fill:#f9b092;fill-opacity:1;fill-rule:nonzero;stroke:none"
         id="path16" />
      <path
         d="m 10873.1,9431.8 c -438,0 -793.2,216.6 -793.2,483.9 0,267.3 355.2,484 793.2,484 438.2,0 793.3,-216.7 793.3,-484 0,-267.3 -355.1,-483.9 -793.3,-483.9"
         style="fill:#f7967d;fill-opacity:1;fill-rule:nonzero;stroke:none"
         id="path18" />
      <path
         d="m 6810.82,9431.8 c -438.05,0 -793.32,216.6 -793.32,483.9 0,267.3 355.27,484 793.32,484 438.16,0 793.32,-216.7 793.32,-484 0,-267.3 -355.16,-483.9 -793.32,-483.9"
         style="fill:#f7967d;fill-opacity:1;fill-rule:nonzero;stroke:none"
         id="path20" />
      <path
         d="m 13583.3,10501.1 c 0,-753.5 -381.7,-870.9 -852.4,-870.9 -470.5,0 -852.3,284.1 -852.3,870.9 0,586.7 381.8,870.8 852.3,870.8 470.7,0 852.4,-117.4 852.4,-870.8"
         style="fill:#f9b092;fill-opacity:1;fill-rule:nonzero;stroke:none"
         id="path22" />
      <path
         d="m 5571.41,10501.1 c 0,-753.5 -381.64,-870.9 -852.31,-870.9 -470.58,0 -852.34,284.1 -852.34,870.9 0,586.7 381.76,870.8 852.34,870.8 470.67,0 852.31,-117.4 852.31,-870.8"
         style="fill:#f9b092;fill-opacity:1;fill-rule:nonzero;stroke:none"
         id="path24" />
      <path
         d="m 4719.1,10704.2 c 87.81,-1516.9 -695.19,-2596 -703.63,-3860.9 -11.25,-1663.4 1065.12,-3309 4709.57,-3309 3843.16,0 4933.16,1716.6 4858.26,3522.1 -50.2,1208.4 -849,2228 -852.4,3647.8 0,0 -494.3,696.9 -536.9,0 -96.5,-1579.4 -1717.1,-788.5 -3432.63,-788.5 -1840.2,0 -3331.1,-483.9 -3577.74,788.5 -76.25,392.8 -464.53,0 -464.53,0"
         style="fill:#f0efef;fill-opacity:1;fill-rule:nonzero;stroke:none"
         id="path26" />
      <path
         d="m 8725.04,13084.5 c 1998.16,0 3649.76,-202 3468.96,-2380.3 h 536.9 c -145,3595.5 -1793.5,4296.2 -4005.86,4296.2 -2212.38,0 -4005.94,-1401.6 -4005.94,-4296.2 h 464.53 c -136.72,1960.6 1919.34,2380.3 3541.41,2380.3"
         style="fill:#f0efef;fill-opacity:1;fill-rule:nonzero;stroke:none"
         id="path28" />
      <path
         d="m 9497.3,8794.8 c 0,-318.7 -329.53,-577 -735.93,-577 -406.45,0 -735.9,258.3 -735.9,577 0,318.5 329.45,576.9 735.9,576.9 406.4,0 735.93,-258.4 735.93,-576.9"
         style="fill:#ef3120;fill-opacity:1;fill-rule:nonzero;stroke:none"
         id="path30" />
      <path
         d="m 11858.9,8711.2 c 0,0 -391.8,174.2 -928.9,29 -469.3,-126.8 -1045.04,-397.5 -1567.54,-244.3 -783.79,229.7 -667.62,984.5 -667.62,984.5 0,0 493.48,554 1335.36,551.6 1411.4,-4.2 1828.7,-1320.8 1828.7,-1320.8"
         style="fill:#ffffff;fill-opacity:1;fill-rule:nonzero;stroke:none"
         id="path32" />
      <path
         d="m 5591.25,8711.2 c 0,0 391.88,174.2 928.87,29 469.26,-126.8 1045,-397.5 1567.58,-244.3 783.67,229.7 667.61,984.5 667.61,984.5 0,0 -493.51,554 -1335.35,551.6 C 6008.4,10027.8 5591.25,8711.2 5591.25,8711.2"
         style="fill:#ffffff;fill-opacity:1;fill-rule:nonzero;stroke:none"
         id="path34" />
      <path
         d="m 9753.63,10075.3 c 0,-379.3 -444.37,-686.9 -992.26,-686.9 -547.97,0 -992.35,307.6 -992.35,686.9 0,379.4 444.38,687.1 992.35,687.1 547.89,0 992.26,-307.7 992.26,-687.1"
         style="fill:#f57f6d;fill-opacity:1;fill-rule:nonzero;stroke:none"
         id="path36" />
      <path
         d="m 10873.1,10987.3 c 0,-212.4 -172.2,-384.7 -384.6,-384.7 -212.4,0 -384.6,172.3 -384.6,384.7 0,212.3 172.2,384.6 384.6,384.6 212.4,0 384.6,-172.3 384.6,-384.6"
         style="fill:#250e0f;fill-opacity:1;fill-rule:nonzero;stroke:none"
         id="path38" />
      <path
         d="m 10757.1,11149.3 c 0,-64 -52,-116 -116.2,-116 -64.1,0 -116.1,52 -116.1,116 0,64.4 52,116.3 116.1,116.3 64.2,0 116.2,-51.9 116.2,-116.3"
         style="fill:#ffffff;fill-opacity:1;fill-rule:nonzero;stroke:none"
         id="path40" />
      <path
         d="m 7515.55,10987.3 c 0,-212.4 -172.19,-384.7 -384.61,-384.7 -212.46,0 -384.65,172.3 -384.65,384.7 0,212.3 172.19,384.6 384.65,384.6 212.42,0 384.61,-172.3 384.61,-384.6"
         style="fill:#250e0f;fill-opacity:1;fill-rule:nonzero;stroke:none"
         id="path42" />
      <path
         d="m 7399.49,11149.3 c 0,-64 -51.99,-116 -116.13,-116 -64.14,0 -116.09,52 -116.09,116 0,64.4 51.95,116.3 116.09,116.3 64.14,0 116.13,-51.9 116.13,-116.3"
         style="fill:#ffffff;fill-opacity:1;fill-rule:nonzero;stroke:none"
         id="path44" />
      <path
         d="m 11463.6,11749.3 c -203.1,-116.2 -878.1,304.8 -1612.94,203.2 -354.61,-48.9 -205.43,615.5 0,682.2 626.04,203.2 1293.84,59.5 1619.34,-365.9 268.4,-350.4 196.9,-403.4 -6.4,-519.5"
         style="fill:#f0efef;fill-opacity:1;fill-rule:nonzero;stroke:none"
         id="path46" />
      <path
         d="m 6198.87,11749.3 c 203.08,-116.2 878.04,304.8 1612.97,203.2 354.57,-48.9 205.31,615.5 0,682.2 -626.06,203.2 -1293.75,59.5 -1619.46,-365.9 -268.32,-350.4 -196.72,-403.4 6.49,-519.5"
         style="fill:#f0efef;fill-opacity:1;fill-rule:nonzero;stroke:none"
         id="path48" />
      <path
         d="m 13129.7,12189.2 c -112.8,-202.8 -2352.6,497.7 -4404.66,536.4 -2177.23,41.2 -4365.66,-757.8 -4590.47,-498.4 -436.72,504.2 147.07,2077 584.53,2417.7 1016.1,791 6947.3,597.4 7663.6,152.4 436.2,-271.2 1045,-2071.7 747,-2608.1"
         style="fill:#ffffff;fill-opacity:1;fill-rule:nonzero;stroke:none"
         id="path50" />
      <path
         d="m 17346.4,16256.9 c 0,-576.9 -467.8,-1045 -1045,-1045 -577.1,0 -1044.9,468.1 -1044.9,1045 0,577.2 467.8,1045.2 1044.9,1045.2 577.2,0 1045,-468 1045,-1045.2"
         style="fill:#ffffff;fill-opacity:1;fill-rule:nonzero;stroke:none"
         id="path52" />
      <path
         d="m 8761.37,10176.9 c -333.79,0 -604.5,118.1 -604.5,263.8 0,145.5 270.71,263.5 604.5,263.5 333.79,0 604.45,-118 604.45,-263.5 0,-145.7 -270.66,-263.8 -604.45,-263.8"
         style="fill:#f68d7b;fill-opacity:1;fill-rule:nonzero;stroke:none"
         id="path54" />
    </g>
  </g>
</svg>
