<?xml version="1.0" encoding="UTF-8" standalone="no"?>
<!-- Created with Inkscape (http://www.inkscape.org/) -->

<svg
   version="1.1"
   id="svg2"

   viewBox="0 0 2829.3333 2829.3333"
   sodipodi:docname="1037_U1RVRElPIEtBVCAwOTYtNTc.eps"
   xmlns:inkscape="http://www.inkscape.org/namespaces/inkscape"
   xmlns:sodipodi="http://sodipodi.sourceforge.net/DTD/sodipodi-0.dtd"
   xmlns="http://www.w3.org/2000/svg"
   xmlns:svg="http://www.w3.org/2000/svg">
  <defs
     id="defs6" />
  <sodipodi:namedview
     id="namedview4"
     pagecolor="#ffffff"
     bordercolor="#000000"
     borderopacity="0.25"
     inkscape:showpageshadow="2"
     inkscape:pageopacity="0.0"
     inkscape:pagecheckerboard="0"
     inkscape:deskcolor="#d1d1d1" />
  <g
     id="g8"
     inkscape:groupmode="layer"
     inkscape:label="ink_ext_XXXXXX"
     transform="matrix(1.3333333,0,0,-1.3333333,0,2829.3333)">
    <g
       id="g10"
       transform="scale(0.1)">
      <path
         d="m 7118.16,13096.8 c 16.88,-525 1024.42,90.2 1024.42,90.2 l 377.11,1192.6 c 0,0 459.92,654.3 -142.66,482.1 -602.77,-172.2 -1275.62,-1239.8 -1258.87,-1764.9"
         style="fill:#ef3120;fill-opacity:1;fill-rule:nonzero;stroke:none"
         id="path12" />
      <path
         d="m 13709.7,13027.8 c -16.8,-524.9 -1024.3,90.4 -1024.3,90.4 l -377.2,1192.5 c 0,0 -459.9,654.3 142.7,482.1 602.7,-172.2 1275.5,-1239.9 1258.8,-1765"
         style="fill:#ef3120;fill-opacity:1;fill-rule:nonzero;stroke:none"
         id="path14" />
      <path
         d="m 13164.6,11366.4 c -195.5,-755 -1171.7,-1412 -2617.4,-1412 -1445.52,0 -2398.61,663.5 -2617.47,1412 -440.2,1506.3 996.87,4424.7 2442.37,4424.7 1445.6,0 3213.4,-2800.5 2792.5,-4424.7"
         style="fill:#c02719;fill-opacity:1;fill-rule:nonzero;stroke:none"
         id="path16" />
      <path
         d="m 10556.1,11142.1 c -1445.63,0 -2904.93,1577.4 -2757,2155 354.73,1384.8 1552.78,2494 2573,2494 990.5,0 2268.9,-1236.7 2754,-2587.3 223,-620.1 -1124.3,-2061.7 -2570,-2061.7"
         style="fill:#ef3120;fill-opacity:1;fill-rule:nonzero;stroke:none"
         id="path18" />
      <path
         d="m 9306.56,12691.4 c 0,0 -818.24,256.8 -1012.34,635.6 -128.67,251.1 -154.46,514.6 -176.37,784.6 -136.05,-255 -245.62,-528.7 -318.75,-814.5 -122.38,-477.6 814.8,-1397.2 1974.06,-1784.8 31.96,235.5 396.04,577 103.28,1037 -163.78,257.5 -569.88,142.1 -569.88,142.1"
         style="fill:#c02719;fill-opacity:1;fill-rule:nonzero;stroke:none"
         id="path20" />
      <path
         d="m 13126.1,13203.8 c -81.9,228.2 -187,452.9 -308.9,669.1 -66.2,-328.2 -259.7,-627 -583.1,-819.1 -369.3,-219.4 -704.5,-504.5 -704.5,-504.5 0,0 -473.5,99.5 -602.7,-158.7 -129.1,-258.3 218.5,-482 218.5,-482 0,0 281,-167.1 160.5,-473.8 1045.7,405.6 1994.9,1282.9 1820.2,1769"
         style="fill:#c02719;fill-opacity:1;fill-rule:nonzero;stroke:none"
         id="path22" />
      <path
         d="m 13090.4,13030.4 c -195.6,-755 -1171.9,-1412.1 -2617.3,-1412.1 -1445.79,0 -2398.84,663.5 -2617.67,1412.1 -24.57,84.6 -43.09,173.9 -56.33,266.7 -122.3,-62.8 -119.18,-628.3 -49.26,-850.6 249.69,-794.3 1277.47,-1576.1 2723.26,-1576.1 1445.4,0 2554.7,831.4 2777.2,1580.4 41,138.5 18.6,706 -124.2,753 -9.3,-59 -20.9,-117.1 -35.7,-173.4"
         style="fill:#e7e6e6;fill-opacity:1;fill-rule:nonzero;stroke:none"
         id="path24" />
      <path
         d="m 12149.6,17883.8 c 0,-310.4 -1139.5,-310 -1653.2,-310 -513.59,0 -1629.84,-0.4 -1629.84,310 0,310.3 527.85,869.6 1344.44,1114.4 1812.9,543.5 3170.5,-349.2 3488.4,-494.5 125,-57.1 -1549.8,-516.3 -1549.8,-619.9"
         style="fill:#ef3120;fill-opacity:1;fill-rule:nonzero;stroke:none"
         id="path26" />
      <path
         d="m 12541.5,16260.8 c 77,-1574.2 -921.2,-1821.1 -2057.5,-1821.1 -1136.07,0 -2057.08,594.1 -2057.08,1821.1 0,1227 921.01,1821 2057.08,1821 1136.3,0 1982.9,-297 2057.5,-1821"
         style="fill:#f0efef;fill-opacity:1;fill-rule:nonzero;stroke:none"
         id="path28" />
      <path
         d="m 12304.6,16062.8 c 66.7,-1574.2 -798,-1821.1 -1782.3,-1821.1 -984.25,0 -1782.3,594.1 -1782.3,1821.1 0,1226.9 798.05,1821 1782.3,1821 984.3,0 1717.5,-297 1782.3,-1821"
         style="fill:#f9b092;fill-opacity:1;fill-rule:nonzero;stroke:none"
         id="path30" />
      <path
         d="m 11572.8,15623.8 c -129.6,0 -278.3,18.7 -438.5,38.9 -6,15.8 -9.2,32.2 -9.2,49.2 0,119 157.9,215.4 352.9,215.4 194.9,0 352.9,-96.4 352.9,-215.4 0,-18.1 -3.7,-35.6 -10.5,-52.4 -70.6,-26 -154.1,-35.7 -247.6,-35.7"
         style="fill:#f7967d;fill-opacity:1;fill-rule:nonzero;stroke:none"
         id="path32" />
      <path
         d="m 9596.56,15671.7 c -102.46,0 -195.7,6.1 -277.83,22.9 -0.73,5.7 -1.11,11.5 -1.11,17.3 0,119 158.04,215.4 353.04,215.4 194.89,0 352.94,-96.4 352.94,-215.4 0,-7.1 -0.6,-14 -1.7,-20.9 -153.78,-9.7 -296.85,-19.3 -425.34,-19.3"
         style="fill:#f7967d;fill-opacity:1;fill-rule:nonzero;stroke:none"
         id="path34" />
      <path
         d="m 12683.8,15972.3 c 0,-335.2 -169.9,-387.4 -379.2,-387.4 -209.6,0 -379.2,126.5 -379.2,387.4 0,261.1 169.6,387.5 379.2,387.5 209.3,0 379.2,-52.3 379.2,-387.5"
         style="fill:#f9b092;fill-opacity:1;fill-rule:nonzero;stroke:none"
         id="path36" />
      <path
         d="m 9119.14,15972.3 c 0,-335.2 -169.84,-387.4 -379.14,-387.4 -209.49,0 -379.3,126.5 -379.3,387.4 0,261.1 169.81,387.5 379.3,387.5 209.3,0 379.14,-52.3 379.14,-387.5"
         style="fill:#f9b092;fill-opacity:1;fill-rule:nonzero;stroke:none"
         id="path38" />
      <path
         d="m 8740,16062.8 c 38.98,-675 -309.3,-1155.1 -313.08,-1717.8 -5.08,-740.1 473.9,-1472.3 2095.38,-1472.3 1709.9,0 2194.8,763.7 2161.4,1567 -22.2,537.7 -377.6,991.3 -379.1,1623.1 0,0 -220,310 -238.9,0 -43,-702.8 -764,-350.9 -1527.3,-350.9 -818.64,0 -1482,-215.3 -1591.92,350.9 -33.67,174.7 -206.48,0 -206.48,0"
         style="fill:#f0efef;fill-opacity:1;fill-rule:nonzero;stroke:none"
         id="path40" />
      <path
         d="m 10522.3,17121.7 c 888.9,0 1623.8,-89.8 1543.4,-1058.9 h 238.9 c -64.8,1599.7 -798,1911.3 -1782.3,1911.3 -984.25,0 -1782.3,-623.5 -1782.3,-1911.3 h 206.48 c -60.7,872.2 854.07,1058.9 1575.82,1058.9"
         style="fill:#f0efef;fill-opacity:1;fill-rule:nonzero;stroke:none"
         id="path42" />
      <path
         d="m 10865.8,15213.2 c 0,-141.8 -146.6,-256.7 -327.4,-256.7 -180.9,0 -327.4,114.9 -327.4,256.7 0,141.7 146.5,256.7 327.4,256.7 180.8,0 327.4,-115 327.4,-256.7"
         style="fill:#ef3120;fill-opacity:1;fill-rule:nonzero;stroke:none"
         id="path44" />
      <path
         d="m 11916.5,15176 c 0,0 -174.4,77.5 -413.3,12.9 -208.7,-56.4 -464.9,-176.8 -697.3,-108.7 -348.8,102.3 -297.1,438.1 -297.1,438.1 0,0 219.6,246.5 594.1,245.3 628,-1.8 813.6,-587.6 813.6,-587.6"
         style="fill:#ffffff;fill-opacity:1;fill-rule:nonzero;stroke:none"
         id="path46" />
      <path
         d="m 9128.05,15176 c 0,0 174.29,77.5 413.2,12.9 208.83,-56.4 464.85,-176.8 697.45,-108.7 348.6,102.3 297,438.1 297,438.1 0,0 -219.5,246.5 -594.06,245.3 -628.01,-1.8 -813.59,-587.6 -813.59,-587.6"
         style="fill:#ffffff;fill-opacity:1;fill-rule:nonzero;stroke:none"
         id="path48" />
      <path
         d="m 10979.9,15782.9 c 0,-168.7 -197.7,-305.6 -441.5,-305.6 -243.7,0 -441.5,136.9 -441.5,305.6 0,168.9 197.8,305.7 441.5,305.7 243.8,0 441.5,-136.8 441.5,-305.7"
         style="fill:#f57f6d;fill-opacity:1;fill-rule:nonzero;stroke:none"
         id="path50" />
      <path
         d="m 11478,16188.7 c 0,-94.5 -76.7,-171.2 -171.1,-171.2 -94.6,0 -171.2,76.7 -171.2,171.2 0,94.4 76.6,171.1 171.2,171.1 94.4,0 171.1,-76.7 171.1,-171.1"
         style="fill:#250e0f;fill-opacity:1;fill-rule:nonzero;stroke:none"
         id="path52" />
      <path
         d="m 10727.3,12478.8 c 0,-94.5 -76.7,-171.1 -171.2,-171.1 -94.5,0 -171.1,76.6 -171.1,171.1 0,94.6 76.6,171.2 171.1,171.2 94.5,0 171.2,-76.6 171.2,-171.2"
         style="fill:#250e0f;fill-opacity:1;fill-rule:nonzero;stroke:none"
         id="path54" />
      <path
         d="m 10727.3,11912.6 c 0,-94.5 -76.7,-171.1 -171.2,-171.1 -94.5,0 -171.1,76.6 -171.1,171.1 0,94.5 76.6,171.1 171.1,171.1 94.5,0 171.2,-76.6 171.2,-171.1"
         style="fill:#250e0f;fill-opacity:1;fill-rule:nonzero;stroke:none"
         id="path56" />
      <path
         d="m 11426.4,16260.8 c 0,-28.5 -23.2,-51.7 -51.8,-51.7 -28.5,0 -51.6,23.2 -51.6,51.7 0,28.6 23.1,51.7 51.6,51.7 28.6,0 51.8,-23.1 51.8,-51.7"
         style="fill:#ffffff;fill-opacity:1;fill-rule:nonzero;stroke:none"
         id="path58" />
      <path
         d="m 9984.14,16188.7 c 0,-94.5 -76.6,-171.2 -171.05,-171.2 -94.57,0 -171.18,76.7 -171.18,171.2 0,94.4 76.61,171.1 171.18,171.1 94.45,0 171.05,-76.7 171.05,-171.1"
         style="fill:#250e0f;fill-opacity:1;fill-rule:nonzero;stroke:none"
         id="path60" />
      <path
         d="m 9932.5,16260.8 c 0,-28.5 -23.01,-51.7 -51.68,-51.7 -28.52,0 -51.64,23.2 -51.64,51.7 0,28.6 23.12,51.7 51.64,51.7 28.67,0 51.68,-23.1 51.68,-51.7"
         style="fill:#ffffff;fill-opacity:1;fill-rule:nonzero;stroke:none"
         id="path62" />
      <path
         d="m 11740.7,16527.7 c -90.5,-51.7 -390.7,135.6 -717.6,90.4 -157.8,-21.8 -91.5,273.8 0,303.5 278.5,90.4 575.6,26.5 720.5,-162.8 119.3,-155.9 87.5,-179.4 -2.9,-231.1"
         style="fill:#f0efef;fill-opacity:1;fill-rule:nonzero;stroke:none"
         id="path64" />
      <path
         d="m 9398.32,16527.7 c 90.31,-51.7 390.63,135.6 717.68,90.4 157.7,-21.8 91.3,273.8 0,303.5 -278.62,90.4 -575.69,26.5 -720.53,-162.8 -119.42,-155.9 -87.58,-179.4 2.85,-231.1"
         style="fill:#f0efef;fill-opacity:1;fill-rule:nonzero;stroke:none"
         id="path66" />
      <path
         d="m 12482,16723.5 c -50.2,-90.3 -1046.7,221.3 -1959.7,238.6 -968.78,18.3 -1942.42,-337.1 -2042.38,-221.7 -194.29,224.3 65.39,924 260.08,1075.6 452.19,351.9 3090.9,265.8 3409.6,67.8 194.1,-120.6 464.9,-921.7 332.4,-1160.3"
         style="fill:#ffffff;fill-opacity:1;fill-rule:nonzero;stroke:none"
         id="path68" />
      <path
         d="m 14358.1,18533.2 c 0,-256.7 -208.2,-464.9 -465,-464.9 -256.7,0 -464.9,208.2 -464.9,464.9 0,256.8 208.2,465 464.9,465 256.8,0 465,-208.2 465,-465"
         style="fill:#ffffff;fill-opacity:1;fill-rule:nonzero;stroke:none"
         id="path70" />
      <path
         d="m 10538.4,15828.2 c -148.5,0 -268.9,52.5 -268.9,117.3 0,64.7 120.4,117.3 268.9,117.3 148.6,0 268.9,-52.6 268.9,-117.3 0,-64.8 -120.3,-117.3 -268.9,-117.3"
         style="fill:#f68d7b;fill-opacity:1;fill-rule:nonzero;stroke:none"
         id="path72" />
      <path
         d="m 11904.2,12020.4 -96.9,458.4 c 0,0 578.7,413.6 1147.7,824.9 569.1,411.4 1037.4,-215.6 554.3,-739.7 -482.8,-524.2 -1605.1,-543.6 -1605.1,-543.6"
         style="fill:#ef3120;fill-opacity:1;fill-rule:nonzero;stroke:none"
         id="path74" />
      <path
         d="m 8923.75,12089.3 96.84,458.5 c 0,0 -578.68,413.5 -1147.62,824.9 -569.02,411.3 -1037.27,-215.6 -554.45,-739.8 482.81,-524.1 1605.23,-543.6 1605.23,-543.6"
         style="fill:#ef3120;fill-opacity:1;fill-rule:nonzero;stroke:none"
         id="path76" />
      <path
         d="m 12545.5,7801.4 h -629 c 0,0 629,1308.8 -334.7,2651.9 -277.9,387.3 464.4,861 963.7,0 878.3,-1429.2 0,-2651.9 0,-2651.9"
         style="fill:#c02719;fill-opacity:1;fill-rule:nonzero;stroke:none"
         id="path78" />
      <path
         d="m 12308.2,7143 -566.8,38.5 175.1,1033.1 h 939.1 L 12308.2,7143"
         style="fill:#000000;fill-opacity:1;fill-rule:nonzero;stroke:none"
         id="path80" />
      <path
         d="m 12935.9,6518.5 c -406.7,45.2 -1095.3,77.5 -1353.9,77.5 -246.1,180.8 150,530.1 181.9,718.7 32,188.6 1083.1,-189.2 1309.1,-299 226,-109.7 269.5,-542.4 -137.1,-497.2"
         style="fill:#000000;fill-opacity:1;fill-rule:nonzero;stroke:none"
         id="path82" />
      <path
         d="m 8659.41,7801.4 h 629.07 c 0,0 -629.07,1308.8 334.57,2651.9 277.96,387.3 -464.26,861 -963.64,0 -878.32,-1429.2 0,-2651.9 0,-2651.9"
         style="fill:#c02719;fill-opacity:1;fill-rule:nonzero;stroke:none"
         id="path84" />
      <path
         d="m 8896.8,7143 566.8,38.5 -175.12,1033.1 H 8349.34 L 8896.8,7143"
         style="fill:#000000;fill-opacity:1;fill-rule:nonzero;stroke:none"
         id="path86" />
      <path
         d="m 8269.06,6518.5 c 406.72,45.2 1095.24,77.5 1353.99,77.5 246.09,180.8 -149.96,530.1 -181.99,718.7 -32,188.6 -1083.05,-189.2 -1309.14,-299 -226.02,-109.7 -269.54,-542.4 137.14,-497.2"
         style="fill:#000000;fill-opacity:1;fill-rule:nonzero;stroke:none"
         id="path88" />
      <path
         d="M 11372.2,11415.8 H 9586.49 l -265.44,1612.4 h 2306.25 l -255.1,-1612.4"
         style="fill:#189aa4;fill-opacity:1;fill-rule:nonzero;stroke:none"
         id="path90" />
      <path
         d="M 11372.2,13477.2 H 9586.49 l -265.44,-449 h 2306.25 l -255.1,449"
         style="fill:#3bbdbd;fill-opacity:1;fill-rule:nonzero;stroke:none"
         id="path92" />
      <path
         d="m 11372.2,11415.8 h -47.9 47.9 l 10.8,68.3 v 0 l -10.8,-68.3"
         style="fill:#9cb3bd;fill-opacity:1;fill-rule:nonzero;stroke:none"
         id="path94" />
      <path
         d="m 11372.2,11415.8 h -47.9 l -30.4,46.5 6.4,15.7 c 27.8,0.7 55.4,2.8 82.7,6.1 l -10.8,-68.3 m -83.2,0 h -22.7 l 1.2,1.6 21.5,-1.6 m -69.3,0 h -371.2 l -22.3,34 22.3,54.6 -56.8,-15.6 -45.1,38.1 -2.6,-58.8 -50.1,-31.1 55,-20.8 0.1,-0.4 h -91.3 l 48.5,764 6.7,1.3 32,-31.3 c -3.5,-77.6 -3.1,-161.5 8.8,-242.5 l -63.5,-22.2 63.6,-41.9 1.5,-76.2 26.3,21.1 c 22.1,-65.5 55.6,-125.4 105.7,-173.9 l -3.2,-15 -43,-17.9 40.4,-23.2 3.8,-46.5 34.5,31.3 45.3,-10.9 -14.3,31.9 c 76.9,-49.9 167.5,-75.5 260.7,-83.4 l -50,-30.9 55.1,-21 3.1,-12.8 m -949.7,0 h -152.3 c 1.8,56.5 7.3,112.8 13.1,169.1 l 17.3,0.1 -15.2,19.5 c 4.4,41.6 8.8,83.3 12.1,125.1 10.6,137.6 3.3,279.6 -4.3,417.5 l 7.4,6.6 -7.9,1.5 c 0,0.5 -0.1,1 -0.1,1.5 -5.3,96.7 7.5,219.4 -61,297.7 -10.4,13.9 -22.8,25.3 -37.5,34.3 -31.2,23.6 -7.4,29.2 -20.8,64.2 -16.9,43.5 -34.16,80.3 -71.54,109.9 -22.72,18.1 -47.65,30.4 -73.17,41.5 l 2.11,4.6 -8.41,-1.9 c -26.35,11.2 -53.19,21.4 -78.74,35.9 0.35,-0.2 0.59,-0.3 0.75,-0.3 1.97,0 -8.44,14 -1.68,27.5 6.09,12.2 49.84,18.1 61.72,21.3 31.22,8.7 61.48,17.2 90.01,26.9 l 0.61,-0.4 -2.97,-40.6 34.1,22.2 3.85,-1.6 c -78.79,-50.2 -137.48,-72.5 -137.48,-72.5 l 268.74,19.8 -49.6,-169.9 c 0,0 57.4,34.6 131.2,106.1 l 9.9,-157.5 -19.1,-1.8 -23.5,28.1 -8,-35.9 -34,-13.7 31.5,-18.7 2.6,-36.6 27.6,24.4 26.7,-6.7 35,-554.9 -1.4,0.3 -17.9,40.3 -21.2,-38.6 -43.8,-4.4 30.2,-32.1 -9.4,-43.1 39.8,18.7 28.4,-16.5 26.3,-416.9 m 441.3,845.5 23,362.7 40.9,-30.2 -3.4,-96 78.3,55.7 2.9,-1.1 c -58,-79.2 -85.3,-180.2 -98.4,-282.8 l -5.4,32.3 -37.9,-40.6 m -508.6,223.2 -4.3,10 3.3,5.3 1,-15.3 m 715.6,136.4 52.4,67 -96.2,1 -21.7,32.5 194.1,-23.1 v 0 c 0,0 -155.1,67.1 -294,217.9 l 7.1,112 h 87.3 v 0 c 1.1,-3.3 2.3,-6.6 3.6,-9.6 0.9,-6.6 2.5,-13.2 4.8,-20.2 11,-32.1 25.9,-59.1 43.9,-82.8 l -0.7,-1.5 1.6,0.3 c 37.6,-48.9 88.6,-83.4 145.1,-118.3 l 13.6,-17.8 -12.7,-38.6 30.5,10.7 c 6.2,-11.5 12.7,-22.8 19.6,-34 -18.9,-17.6 -59.8,-31 -94.7,-45.9 -31.5,-13.5 -59.3,-30.2 -83.6,-49.6 m -127,59.5 -12,49.7 27.6,-3.3 -15.6,-46.4 m -788.5,134.2 -2.3,8.7 26.3,30.9 -2.1,0.1 c 61,34.7 105.5,85.7 120.3,173.9 v 0 0 h 23.4 l 4.3,-68 c -56.4,-61.4 -116.5,-109.4 -169.9,-145.6"
         style="fill:#107d88;fill-opacity:1;fill-rule:nonzero;stroke:none"
         id="path96" />
      <path
         d="m 10847.3,13028.2 h -87.3 l -44.8,196.5 c 18.7,-1 38.3,-1.6 58.5,-1.6 0.1,0 0.1,0 0.1,0 v 0 0 c 0.1,0 0.1,0 0.2,0 9.7,0 19.6,0.2 29.7,0.4 16.8,-54.2 34.4,-109.1 37.9,-164.7 0.6,-11.1 2.7,-21.2 5.7,-30.6 m -678.9,0 h -23.4 c 0.8,5.1 2,9.9 2.5,15.3 3,23.2 -0.7,42.5 -8.8,58.1 12,44.8 23.1,89.8 33.6,134.9 4.7,-0.1 9.4,-0.1 14,-0.1 0.1,0 0.2,0 0.3,0 v 0 0 c 0.1,0 0.1,0 0.1,0 9.9,0 19.5,0.1 28.9,0.4 l -0.4,-1.7 -23.5,-9.5 18.9,-11.1 -42.2,-186.3 m 519.3,317.5 -9.6,42 c 23.5,16.5 47.8,33.4 72.2,50.1 6.3,-26.7 12,-53.6 18,-80.4 -27.7,-4.5 -55.1,-8.4 -80.6,-11.7 m -445.7,7.9 c -12.4,2.1 -25.4,4.4 -38.8,6.9 5.1,17.8 10.1,35.5 15.1,53.3 10.7,-8.2 21.4,-16.5 31.8,-24.6 l -8.1,-35.6"
         style="fill:#27999c;fill-opacity:1;fill-rule:nonzero;stroke:none"
         id="path98" />
      <path
         d="m 9610.74,13460.7 1.41,16.5 h 23.83 l -25.24,-16.5"
         style="fill:#7bd3d6;fill-opacity:1;fill-rule:nonzero;stroke:none"
         id="path100" />
      <path
         d="m 9400.94,13163.3 -0.04,0.2 133.16,225.1 0.07,0.1 -133.19,-225.4"
         style="fill:#f7f7f7;fill-opacity:1;fill-rule:nonzero;stroke:none"
         id="path102" />
      <path
         d="m 9401.64,13160.2 -0.7,3.1 133.19,225.4 15.52,3.6 -39.53,-87.6 16.57,-27.3 c -6.45,-14.6 -14.19,-31.4 -22.73,-48.8 l -39.59,4.4 -62.73,-72.8"
         style="fill:#7bd3d6;fill-opacity:1;fill-rule:nonzero;stroke:none"
         id="path104" />
      <path
         d="m 9619.34,13064.1 -2.3,32.6 c 18.92,0.9 37.78,2 56.66,3.1 l 8.76,-20.1 -35.58,8.8 -27.54,-24.4"
         style="fill:#7bd3d6;fill-opacity:1;fill-rule:nonzero;stroke:none"
         id="path106" />
      <path
         d="m 9832.17,13231.7 c -11.55,3.7 -23.1,7.6 -34.51,11.9 l -10.86,52.3 -88.56,37.3 46.66,26.6 c 27.39,-26.4 59.09,-48.8 95.24,-63.6 0.04,0 0.09,0 0.13,0 0.15,-0.1 0.29,-0.1 0.44,-0.2 0.05,0 0.11,-0.1 0.17,-0.1 0.15,0 0.3,-0.1 0.46,-0.2 0.04,0 0.07,0 0.11,0 0.19,-0.1 0.36,-0.2 0.55,-0.2 0.09,-0.1 0.19,-0.1 0.28,-0.1 0.09,-0.1 0.18,-0.1 0.26,-0.1 0.11,-0.1 0.22,-0.1 0.33,-0.2 0.07,0 0.15,0 0.22,-0.1 0.11,0 0.23,-0.1 0.35,-0.1 0.05,0 0.11,0 0.17,-0.1 0.44,-0.1 0.89,-0.3 1.33,-0.5 0.03,0 0.04,0 0.07,0 0.14,-0.1 0.28,-0.1 0.42,-0.2 0.04,0 0.1,0 0.14,0 0.14,-0.1 0.28,-0.1 0.42,-0.2 0.02,0 0.05,0 0.07,0 0.45,-0.2 0.91,-0.4 1.37,-0.5 0.04,0 0.08,-0.1 0.13,-0.1 0.12,0 0.25,-0.1 0.37,-0.1 0.07,0 0.13,-0.1 0.19,-0.1 0.12,0 0.23,-0.1 0.35,-0.1 0.08,-0.1 0.16,-0.1 0.24,-0.1 0.11,0 0.21,-0.1 0.32,-0.1 0.18,-0.1 0.36,-0.1 0.54,-0.2 v 0 0 c 1.75,-0.7 3.5,-1.3 5.25,-1.9 24.76,-8.8 49.47,-16.3 73.95,-22.7 l -59.51,6.6 -37.09,-42.9 m 119.65,196.6 c -2.52,1.1 -5,2.2 -7.47,3.3 l 10.03,2.3 -2.56,-5.6"
         style="fill:#7bd3d6;fill-opacity:1;fill-rule:nonzero;stroke:none"
         id="path108" />
      <path
         d="m 10087,13121.2 -9.7,2.5 c 1.9,3.4 3.4,6.7 4.4,9.9 l 5.3,-12.4 m -10,40.9 c -9.4,11.9 -28,20.5 -50,26.9 l 4.7,21.6 23.7,-28.1 36.5,3.5 -14.9,-23.9"
         style="fill:#7bd3d6;fill-opacity:1;fill-rule:nonzero;stroke:none"
         id="path110" />
      <path
         d="m 10210.6,13214.5 -18.9,11.1 23.5,9.5 -4.6,-20.6"
         style="fill:#65bcc2;fill-opacity:1;fill-rule:nonzero;stroke:none"
         id="path112" />
      <path
         d="m 10847.9,13222.7 0.1,3 c 1.5,0.1 3,0.2 4.4,0.3 l -4.5,-3.3 m 168.5,22.9 -10.9,3.9 c 3,0.7 6,1.4 8.9,2.2 l 2,-6.1 m -222.9,116 -19.5,14.5 92.5,26.4 25.1,74.7 h 16.4 l 42.8,-63.3 35.8,-0.3 c -16.3,-7 -33.9,-13.6 -53.1,-19.7 -39.5,-12.7 -89.4,-23.5 -140,-32.3"
         style="fill:#7bd3d6;fill-opacity:1;fill-rule:nonzero;stroke:none"
         id="path114" />
      <path
         d="m 11101.4,13077.6 -23.1,12.2 c 7,-0.7 14.1,-1.4 21.3,-2 l 1.8,-10.2 m -65.1,0 3,16.9 c 7.6,-1.1 15.5,-2.1 23.4,-3 l -26.4,-13.9"
         style="fill:#7bd3d6;fill-opacity:1;fill-rule:nonzero;stroke:none"
         id="path116" />
      <path
         d="m 11342.7,13028.2 h -39.5 l 33.4,35.9 6.1,-35.9"
         style="fill:#7bd3d6;fill-opacity:1;fill-rule:nonzero;stroke:none"
         id="path118" />
      <path
         d="m 11265.9,13028.2 h -20.6 l -1.9,3.3 22.5,-3.3"
         style="fill:#7bd3d6;fill-opacity:1;fill-rule:nonzero;stroke:none"
         id="path120" />
      <path
         d="m 11484.1,13258.1 -42,15.2 c -13.7,29.6 -24.9,61.1 -42.9,87.7 -24.8,36.6 -44.8,50.6 -62.3,50.6 -22.2,0 -40.4,-22.7 -59.1,-49.8 l -36,26.8 92.4,26.4 20.9,62.2 h 17.1 l 96.4,-169.8 15.5,-49.3"
         style="fill:#7bd3d6;fill-opacity:1;fill-rule:nonzero;stroke:none"
         id="path122" />
      <path
         d="m 11568.6,13131.6 -9.3,16.4 9.3,-16.4 v 0"
         style="fill:#f7f7f7;fill-opacity:1;fill-rule:nonzero;stroke:none"
         id="path124" />
      <path
         d="m 11569.1,13090 -31.5,16.7 c 0.2,8 -1.6,17.4 -5.8,28.6 -2.8,7.5 -6.6,14.9 -11.1,22.3 l 15.3,31.3 9.4,-16.6 7.3,-15.1 1.4,-0.2 5.2,-9 9.3,-16.4 -5.7,-5.3 6.2,-36.3"
         style="fill:#7bd3d6;fill-opacity:1;fill-rule:nonzero;stroke:none"
         id="path126" />
      <path
         d="m 9476.13,12086.1 h -0.07 l -15.87,96.2 h 0.11 l 15.83,-96.2"
         style="fill:#d95016;fill-opacity:1;fill-rule:nonzero;stroke:none"
         id="path128" />
      <path
         d="m 9509.1,12084.1 -32.97,2 -15.83,96.2 36.61,10.6 -22.61,-57.5 34.8,-51.3"
         style="fill:#4bb7c6;fill-opacity:1;fill-rule:nonzero;stroke:none"
         id="path130" />
      <path
         d="m 9333,12955.6 -0.19,0.2 -1.56,10.3 h 0.03 l 1.72,-10.5"
         style="fill:#f25a1a;fill-opacity:1;fill-rule:nonzero;stroke:none"
         id="path132" />
      <path
         d="m 9349.76,12869.9 12.31,54.5 -29.07,31.2 -1.72,10.5 48.41,4.5 27.11,48.7 22.34,-51.2 15.45,-3 c -11.66,-17.5 -17.85,-40.4 -16.35,-69.6 0.32,-6.4 0.7,-12.8 1.13,-19.3 l -28.9,17.2 -50.71,-23.5"
         style="fill:#4bb7c6;fill-opacity:1;fill-rule:nonzero;stroke:none"
         id="path134" />
      <path
         d="m 9407.03,12505.9 h -0.04 l -23.16,140.4 h 0.09 l 23.11,-140.4"
         style="fill:#d95016;fill-opacity:1;fill-rule:nonzero;stroke:none"
         id="path136" />
      <path
         d="m 9480.41,12497.9 -73.38,8 -23.11,140.4 73.4,17.2 c 1.34,-7.7 2.69,-15.4 4.05,-23.1 l -27.31,-60.7 45.94,-75.8 c 0.14,-2 0.28,-4 0.41,-6"
         style="fill:#4bb7c6;fill-opacity:1;fill-rule:nonzero;stroke:none"
         id="path138" />
      <path
         d="m 9526.8,11777.6 -20,121.5 0.13,-0.1 19.97,-121.2 -0.1,-0.2"
         style="fill:#d95016;fill-opacity:1;fill-rule:nonzero;stroke:none"
         id="path140" />
      <path
         d="m 9526.9,11777.8 -19.97,121.2 10.65,-8.5 32.47,9.6 c 3.88,-26.7 8.53,-53.4 14.48,-80 2.66,-12 6.65,-25.7 11.44,-40.4 l -45.78,2.4 -3.29,-4.3"
         style="fill:#4bb7c6;fill-opacity:1;fill-rule:nonzero;stroke:none"
         id="path142" />
      <path
         d="m 9642.77,11552.5 -31.52,9.2 27.11,19.9 c 1.93,-10 3.44,-19.7 4.41,-29.1"
         style="fill:#4bb7c6;fill-opacity:1;fill-rule:nonzero;stroke:none"
         id="path144" />
      <path
         d="m 9643.87,11415.8 h -57.38 l -8.01,47.8 0.15,-0.1 7.86,-47.7 h 57.38"
         style="fill:#f3f3f3;fill-opacity:1;fill-rule:nonzero;stroke:none"
         id="path146" />
      <path
         d="m 9643.87,11415.8 h -57.38 l -7.86,47.7 6.76,-3.4 51.44,28.7 -8.55,-58.4 15.59,-14.6"
         style="fill:#4bb7c6;fill-opacity:1;fill-rule:nonzero;stroke:none"
         id="path148" />
      <path
         d="m 9851.94,12966.6 c -1.95,0.1 -3.78,0.3 -5.46,0.4 -30.66,1.9 -59.22,4 -86.95,6.8 l -30.78,33.1 55.66,5.3 8.91,16 h 32.38 l 8.09,-18.5 54.76,-10.8 -36.61,-32.3"
         style="fill:#4bb7c6;fill-opacity:1;fill-rule:nonzero;stroke:none"
         id="path150" />
      <path
         d="m 9941.85,12818.3 -30.91,25 39.49,9.6 14.49,38 21.29,-34.6 38.49,-2 c -25.08,-14.2 -53.02,-25.8 -82.85,-36"
         style="fill:#4bb7c6;fill-opacity:1;fill-rule:nonzero;stroke:none"
         id="path152" />
      <path
         d="m 9939.49,12777.3 2.97,40.6 -0.61,0.4 c 29.83,10.2 57.77,21.8 82.85,36 l 2.1,-0.1 -26.3,-30.9 2.3,-8.7 c -8.61,-5.9 -17.1,-11.5 -25.36,-16.7 l -3.85,1.6 -34.1,-22.2"
         style="fill:#3ba3b4;fill-opacity:1;fill-rule:nonzero;stroke:none"
         id="path154" />
      <path
         d="m 9850.65,12647.7 c -42.79,21.7 -102.31,37.9 -140.56,63 l 3.5,40.9 71.06,-64.7 85.14,20.1 c 2.1,-0.9 4.21,-1.8 6.3,-2.7 l -25.44,-56.6"
         style="fill:#4bb7c6;fill-opacity:1;fill-rule:nonzero;stroke:none"
         id="path156" />
      <path
         d="m 9876.09,12704.3 c -2.09,0.9 -4.2,1.8 -6.3,2.7 l 8.41,1.9 -2.11,-4.6"
         style="fill:#3ba3b4;fill-opacity:1;fill-rule:nonzero;stroke:none"
         id="path158" />
      <path
         d="m 10004.8,12443.2 c -6.55,6 -12.06,10.9 -16.83,15.2 l 27.93,2.6 -11.1,-17.8"
         style="fill:#4bb7c6;fill-opacity:1;fill-rule:nonzero;stroke:none"
         id="path160" />
      <path
         d="m 10149.7,12445.3 -2.6,36.6 -31.5,18.7 34,13.7 8,35.9 23.5,-28.1 19.1,1.8 1.5,-24.1 -3.3,-5.3 4.3,-10 1.3,-21.5 -26.7,6.7 -27.6,-24.4"
         style="fill:#3ba3b4;fill-opacity:1;fill-rule:nonzero;stroke:none"
         id="path162" />
      <path
         d="m 10120.6,12080.7 -37.9,22.2 -10.5,-5 c 0,15.9 -0.3,31.7 -1.1,47.5 -0.4,8.5 -0.6,17.5 -0.7,26.6 l 16.6,30.3 17.8,-40.3 35.4,-6.8 c 0.1,-2.7 0.3,-5.4 0.5,-8.1 l -25.5,-22.7 5.4,-43.7"
         style="fill:#4bb7c6;fill-opacity:1;fill-rule:nonzero;stroke:none"
         id="path164" />
      <path
         d="m 10140.7,12147.1 c -0.2,2.7 -0.4,5.4 -0.5,8.1 l 7.9,-1.5 -7.4,-6.6"
         style="fill:#3ba3b4;fill-opacity:1;fill-rule:nonzero;stroke:none"
         id="path166" />
      <path
         d="m 10175.5,11830.5 9.4,43.1 -30.2,32.1 43.8,4.4 21.2,38.6 17.9,-40.3 1.4,-0.3 4.7,-75.4 -28.4,16.5 -39.8,-18.7"
         style="fill:#3ba3b4;fill-opacity:1;fill-rule:nonzero;stroke:none"
         id="path168" />
      <path
         d="m 10075.5,11546.1 -14.7,44.2 -17.2,5 c 0.2,9.7 0.2,19.3 0.3,28.6 l 9.5,7 -1.3,46.5 37.7,-27.2 43.9,15.9 -14.3,-44.3 13.5,-17.3 c -0.7,-6.6 -1.4,-13.1 -2.1,-19.6 l -29.3,-0.2 -26,-38.6"
         style="fill:#4bb7c6;fill-opacity:1;fill-rule:nonzero;stroke:none"
         id="path170" />
      <path
         d="m 10130.8,11584.9 c 0.7,6.5 1.4,13 2.1,19.6 l 15.2,-19.5 -17.3,-0.1"
         style="fill:#3ba3b4;fill-opacity:1;fill-rule:nonzero;stroke:none"
         id="path172" />
      <path
         d="m 10014.9,11415.8 h -46.27 l -2.93,5.2 -58.4,7.1 39.11,39.9 c 33.85,4.3 62.39,15.2 78.79,38.6 4.1,5.9 7.3,12.7 9.8,20.1 l 6.5,3.6 -8.6,-58.3 43,-40.1 -58,-9.8 -3,-6.3"
         style="fill:#4bb7c6;fill-opacity:1;fill-rule:nonzero;stroke:none"
         id="path174" />
      <path
         d="m 10993.5,12885.7 -39.8,39.1 -53.2,-10.4 c -0.3,0.4 -0.6,0.8 -0.9,1.2 l 24.2,48.5 -27.2,48.9 55.3,-8.2 21.7,23.4 h 19.1 l 6.5,-37.5 50.7,-23.7 -49.5,-25.8 -6.9,-55.5"
         style="fill:#4bb7c6;fill-opacity:1;fill-rule:nonzero;stroke:none"
         id="path176" />
      <path
         d="m 10898.9,12914.1 0.7,1.5 c 0.3,-0.4 0.6,-0.8 0.9,-1.2 l -1.6,-0.3"
         style="fill:#3ba3b4;fill-opacity:1;fill-rule:nonzero;stroke:none"
         id="path178" />
      <path
         d="m 10752.8,12142 -7.9,7.8 c 0.3,7 0.7,14 1,20.9 1.8,32.6 4.5,65.8 8.7,98.9 l 3.8,-22.7 50.7,-23.5 -49.5,-25.9 -6.8,-55.5"
         style="fill:#4bb7c6;fill-opacity:1;fill-rule:nonzero;stroke:none"
         id="path180" />
      <path
         d="m 10744.9,12149.8 -32,31.3 -6.7,-1.3 5.1,81.5 37.9,40.6 5.4,-32.3 c -4.2,-33.1 -6.9,-66.3 -8.7,-98.9 -0.3,-6.9 -0.7,-13.9 -1,-20.9"
         style="fill:#3ba3b4;fill-opacity:1;fill-rule:nonzero;stroke:none"
         id="path182" />
      <path
         d="m 11117.7,12729.3 -32.9,23.9 -7.8,-2.8 c -6.8,12.5 -13.1,25.3 -19.2,38.2 -4.1,2.5 -8.2,5 -12.2,7.5 l -11.1,14.6 40.7,-0.2 23.1,33.4 12.4,-38.6 39,-11.7 -33,-23.8 1,-40.5"
         style="fill:#4bb7c6;fill-opacity:1;fill-rule:nonzero;stroke:none"
         id="path184" />
      <path
         d="m 11046.5,12739.7 12.7,38.6 -13.6,17.8 c 4,-2.5 8.1,-5 12.2,-7.5 6.1,-12.9 12.4,-25.7 19.2,-38.2 l -30.5,-10.7"
         style="fill:#3ba3b4;fill-opacity:1;fill-rule:nonzero;stroke:none"
         id="path186" />
      <path
         d="m 10940.4,12520.6 -87.4,31.8 c 18.5,25.3 40.1,48.3 65.3,68.5 l -6.7,-8.7 28.8,-91.6"
         style="fill:#4bb7c6;fill-opacity:1;fill-rule:nonzero;stroke:none"
         id="path188" />
      <path
         d="m 10771.8,12497.8 3.4,96 -40.9,30.2 0.4,6 c 50.5,-47.9 86.3,-71.8 86.3,-71.8 l -29.7,122.2 15.6,46.4 45.9,-5.4 21.7,-32.5 96.2,-1 -52.4,-67 c -25.2,-20.2 -46.8,-43.2 -65.3,-68.5 l -2.9,1.1 -78.3,-55.7"
         style="fill:#3ba3b4;fill-opacity:1;fill-rule:nonzero;stroke:none"
         id="path190" />
      <path
         d="m 10940.3,12414.4 -0.1,0.1 h 0.2 c -0.1,0 -0.1,-0.1 -0.1,-0.1"
         style="fill:#4bb7c6;fill-opacity:1;fill-rule:nonzero;stroke:none"
         id="path192" />
      <path
         d="m 10781.6,11788.1 c -12.9,38.2 -21.9,78.3 -27.9,119.2 l 8.3,2.9 20.2,73.6 46,-60.8 22.9,1 c 3.5,-18.7 7.9,-37.2 13.2,-55.2 l -3.4,-4.9 27,-71.2 -73,22 -33.3,-26.6"
         style="fill:#4bb7c6;fill-opacity:1;fill-rule:nonzero;stroke:none"
         id="path194" />
      <path
         d="m 10755.3,11767 -1.5,76.2 -63.6,41.9 63.5,22.2 c 6,-40.9 15,-81 27.9,-119.2 l -26.3,-21.1"
         style="fill:#3ba3b4;fill-opacity:1;fill-rule:nonzero;stroke:none"
         id="path196" />
      <path
         d="m 10950.8,11563.9 c -17.9,11.7 -35.1,24.7 -51.4,39.1 -4.1,3.6 -8.2,7.4 -12.1,11.2 l 6.5,30.5 30.3,-35.4 46.1,5 -24.1,-39.8 4.7,-10.6"
         style="fill:#4bb7c6;fill-opacity:1;fill-rule:nonzero;stroke:none"
         id="path198" />
      <path
         d="m 10885.3,11511.6 -3.8,46.5 -40.4,23.2 43,17.9 3.2,15 c 3.9,-3.8 8,-7.6 12.1,-11.2 16.3,-14.4 33.5,-27.4 51.4,-39.1 l 14.3,-31.9 -45.3,10.9 -34.5,-31.3"
         style="fill:#3ba3b4;fill-opacity:1;fill-rule:nonzero;stroke:none"
         id="path200" />
      <path
         d="m 10848.5,11415.8 h -99.5 l -0.1,0.4 -55,20.8 50.1,31.1 2.6,58.8 45.1,-38.1 56.8,15.6 -22.3,-54.6 22.3,-34"
         style="fill:#3ba3b4;fill-opacity:1;fill-rule:nonzero;stroke:none"
         id="path202" />
      <path
         d="m 11466.3,12939.5 c -2.4,0.8 -4.9,1.5 -7.4,2.2 -25.4,6.5 -51.1,11.5 -77.2,15.4 l 9.7,19.5 -27.1,48.9 55.3,-8.2 10,10.9 h 33.1 l 4.2,-25.1 50.7,-23.5 -49.6,-25.9 -1.7,-14.2"
         style="fill:#4bb7c6;fill-opacity:1;fill-rule:nonzero;stroke:none"
         id="path204" />
      <path
         d="m 11584.1,12755 0.9,5.8 v -0.3 l -0.9,-5.5 m 4.8,30.5 1.2,7.6 -1.1,-7.5 -0.1,-0.1"
         style="fill:#f25a1a;fill-opacity:1;fill-rule:nonzero;stroke:none"
         id="path206" />
      <path
         d="m 11582.3,12743.9 -29.8,21.8 -21.5,-7.6 c 2.7,21.4 4.8,43.6 4.6,64.9 h 7.3 l 23.1,33.4 12.4,-38.6 14.8,-4.4 -3.1,-20.3 -1.2,-7.6 -4.5,-3.2 0.6,-21.5 -0.9,-5.8 -1.8,-11.1"
         style="fill:#4bb7c6;fill-opacity:1;fill-rule:nonzero;stroke:none"
         id="path208" />
      <path
         d="m 11492.9,12365.1 -32.4,17.1 -32.6,-17.1 6.4,36.2 -5.2,5.1 c 15,8.1 29.3,18 38.8,35 0.7,1.4 1.5,2.8 2.3,4.2 l 6.6,-13.4 36.4,-5.3 -26.5,-25.6 6.2,-36.2"
         style="fill:#4bb7c6;fill-opacity:1;fill-rule:nonzero;stroke:none"
         id="path210" />
      <path
         d="m 11449.3,12054.4 19.5,39.6 -21.7,38.4 37.5,-5.4 -10.6,-67.6 -24.7,-5"
         style="fill:#4bb7c6;fill-opacity:1;fill-rule:nonzero;stroke:none"
         id="path212" />
      <path
         d="m 11352.8,11524.1 -3.7,46.5 -9.7,5.5 30.2,71.6 22.3,-25.8 13.1,1.3 -11,-69.4 -6.5,1.6 -34.7,-31.3"
         style="fill:#4bb7c6;fill-opacity:1;fill-rule:nonzero;stroke:none"
         id="path214" />
      <path
         d="m 11278,11477.7 c -22.2,0 -44.4,0.9 -66.5,2.8 l 0.1,0.1 2.8,58.8 44.9,-38 56.9,15.4 -15.9,-38.8 c -7.4,-0.2 -14.8,-0.3 -22.3,-0.3"
         style="fill:#4bb7c6;fill-opacity:1;fill-rule:nonzero;stroke:none"
         id="path216" />
      <path
         d="m 11324.3,11415.8 h -35.3 l -21.5,1.6 -1.2,-1.6 h -46.6 l -3.1,12.8 -55.1,21 50,30.9 c 22.1,-1.9 44.3,-2.8 66.5,-2.8 7.5,0 14.9,0.1 22.3,0.3 l -6.4,-15.7 30.4,-46.5"
         style="fill:#3ba3b4;fill-opacity:1;fill-rule:nonzero;stroke:none"
         id="path218" />
      <path
         d="M 10657.7,11415.8 H 10270 l -101.6,1612.4 h 591.6 l -102.3,-1612.4"
         style="fill:#f78d1a;fill-opacity:1;fill-rule:nonzero;stroke:none"
         id="path220" />
      <path
         d="M 10657.7,13477.2 H 10270 l -101.6,-449 h 591.6 l -102.3,449"
         style="fill:#fab415;fill-opacity:1;fill-rule:nonzero;stroke:none"
         id="path222" />
      <path
         d="m 11046.9,12698.3 -267.6,31.8 41.7,-171.9 c 0,0 -349.7,233.1 -403,704.7 l 132.9,49.6 c 79.1,-433.8 496,-614.2 496,-614.2"
         style="fill:#fab815;fill-opacity:1;fill-rule:nonzero;stroke:none"
         id="path224" />
      <path
         d="m 11320.2,13582.6 c 4.6,-23.2 -80.4,-261.9 -257.5,-317.3 -288.1,-90.3 -563.8,-7.6 -563.8,-7.6 l 52.4,73.1 c 0,0 249.9,20.5 382.2,63.1 255.4,82 243.1,241.3 243.1,241.3 44.3,5.2 138.9,-29.3 143.6,-52.6"
         style="fill:#f68712;fill-opacity:1;fill-rule:nonzero;stroke:none"
         id="path226" />
      <path
         d="m 11286.5,13484.9 c 24.3,49 35.5,88.9 33.7,97.7 -4.7,23.3 -99.3,57.8 -143.6,52.6 0,0 73.2,-11.4 109.9,-150.3"
         style="fill:#d35215;fill-opacity:1;fill-rule:nonzero;stroke:none"
         id="path228" />
      <path
         d="m 10551.3,13330.8 c -31,15.2 -52.4,-73.1 -52.4,-73.1 0,0 275.7,-82.7 563.8,7.6 54.7,17.1 100.7,51.7 137.9,92.1 -4,3.3 -43.9,-21.5 -110.2,-46.3 -115.7,-43.2 -312,-86.5 -539.1,19.7"
         style="fill:#d35215;fill-opacity:1;fill-rule:nonzero;stroke:none"
         id="path230" />
      <path
         d="m 11320.2,13582.6 c 0.1,-0.4 -10.8,9.2 -34.1,18.8 -49,20.3 -152.7,40.7 -322.5,-33.7 -123.6,-54 -464.7,-310 -464.7,-310 l 5.9,139 c 0,0 379.2,539.9 620.8,466.4 0,0 163.7,-143.9 194.6,-280.5"
         style="fill:#fbc713;fill-opacity:1;fill-rule:nonzero;stroke:none"
         id="path232" />
      <path
         d="m 11320.2,13582.6 c 0.2,-1 -83.2,170.4 -195.7,229.1 -48,25 -103.1,28.1 -156.3,5.8 -178.4,-74.4 -461.5,-440.2 -461.5,-440.2 l -1.9,19.4 c 0,0 379.2,539.9 620.8,466.4 0,0 163.7,-143.9 194.6,-280.5"
         style="fill:#fddd10;fill-opacity:1;fill-rule:nonzero;stroke:none"
         id="path234" />
      <path
         d="m 10498.9,13257.7 5.9,139 1.9,-19.4 c 0,0 16.3,21 43.4,54 l 98.1,74.7 c 0,0 -87.7,-84.3 -95.6,-117 11,1.4 76.5,48.2 76.5,48.2 0,0 -86.1,-67.4 -77.4,-90.8 19.5,3.8 94,47.2 94,47.2 l -146.8,-135.9"
         style="fill:#f59616;fill-opacity:1;fill-rule:nonzero;stroke:none"
         id="path236" />
      <path
         d="m 10506.7,13377.3 -1.9,19.4 45.3,34.6 c -27.1,-33 -43.4,-54 -43.4,-54"
         style="fill:#f6a514;fill-opacity:1;fill-rule:nonzero;stroke:none"
         id="path238" />
      <path
         d="m 10892.9,13551.2 c 45.8,32.4 94,64.9 136.8,102.9 17.2,15.2 29,34.4 22.9,46.2 -6,11.3 -32.9,-3.5 -38,8.5 -5.3,12.9 27.2,40.4 19.4,52.1 -8.4,12.7 -41.9,-15.5 -58.6,-26.8 -12.8,-8.6 -68.4,-50 -65.2,-29.8 2.5,16.3 40.2,43.7 54.9,56.5 16.3,14.3 45.1,33.5 53.4,51.7 15.4,33.7 -24.4,7.8 -41.5,-4.3 -27.1,-19.1 -54.3,-38.4 -81.3,-59.4 -33.4,-25.7 -69,-45.7 -102.3,-70.7 -23.6,-17.5 -46.4,-38.1 -69.1,-58 -17.2,-15 -42.9,-49.5 -12.1,-40.2 11,3.3 24.3,12.3 35.6,19.6 8.5,5.6 22,17.9 30.5,20.6 29,8.7 -9.2,-32.9 -20.9,-43.2 -10.8,-9.2 -20.7,-16.5 -23.5,-27.6 -2.8,-10.4 1.1,-14.5 12.7,-8 12,6.7 20,17.2 32.7,22.1 18.7,7.1 11,-2.2 2.6,-14 -1.8,-2.5 -4.6,-5.1 -7.1,-7.2 2,-14.5 105,65.1 70.9,12.7 -9.6,-14.9 -95.3,-54.3 -97,-74.5 -1.7,-20.2 106.5,44.3 144.2,70.8"
         style="fill:#fddd10;fill-opacity:1;fill-rule:nonzero;stroke:none"
         id="path240" />
      <path
         d="m 9839.96,12725.4 268.74,19.8 -49.6,-169.9 c 0,0 360.1,217.2 434.5,686 l -130.5,55.4 c -98.5,-429.8 -523.14,-591.3 -523.14,-591.3"
         style="fill:#fbc713;fill-opacity:1;fill-rule:nonzero;stroke:none"
         id="path242" />
      <path
         d="m 9606.64,13621.3 c -5.7,-23.1 68.56,-265.4 242.93,-328.7 283.73,-103.1 562.93,-32.9 562.93,-32.9 l -49,75.3 c 0,0 -248.7,31.8 -379.16,80.2 -251.33,93.5 -231.88,252 -231.88,252 -44.1,7.2 -140.08,-22.9 -145.82,-45.9"
         style="fill:#f68712;fill-opacity:1;fill-rule:nonzero;stroke:none"
         id="path244" />
      <path
         d="m 9635.78,13522 c -21.91,50.1 -31.25,90.5 -29.14,99.3 5.74,23 101.72,53.1 145.82,45.9 0,0 -73.71,-8 -116.68,-145.2"
         style="fill:#d35215;fill-opacity:1;fill-rule:nonzero;stroke:none"
         id="path246" />
      <path
         d="m 10363.5,13335 c 31.7,13.9 49,-75.3 49,-75.3 0,0 -279.2,-70.2 -562.93,32.9 -53.91,19.6 -98.24,56.3 -133.71,98.3 4.44,3.2 46.26,-25.7 116.35,-54.7 114.69,-47.4 305.09,-94.7 531.29,-1.2"
         style="fill:#d35215;fill-opacity:1;fill-rule:nonzero;stroke:none"
         id="path248" />
      <path
         d="m 9606.64,13621.3 c -0.13,-0.5 10.06,7.6 31.23,15.8 48.31,18.6 153.8,37.2 324.24,-46.8 121.19,-59.6 450.39,-330.6 450.39,-330.6 l 0.4,139.2 c 0,0 -354.5,556.2 -599.38,493.7 0,0 -169.85,-136.3 -206.88,-271.3"
         style="fill:#fbc713;fill-opacity:1;fill-rule:nonzero;stroke:none"
         id="path250" />
      <path
         d="m 9606.64,13621.3 c -0.2,-1.1 90.82,166.4 205.78,219.9 48.95,22.9 104.18,23.5 156.49,-1.1 174.79,-82.5 441.09,-460.6 441.09,-460.6 l 2.9,19.4 c 0,0 -354.5,556.2 -599.38,493.7 0,0 -169.85,-136.3 -206.88,-271.3"
         style="fill:#fddd10;fill-opacity:1;fill-rule:nonzero;stroke:none"
         id="path252" />
      <path
         d="m 10412.5,13259.7 v 0 0 L 10272,13402 c 0,0 72.5,-46.6 91.9,-51.4 9.5,23 -73.4,94.2 -73.4,94.2 0,0 63.4,-49.6 74.2,-51.6 -6.3,33.1 -90.1,121.2 -90.1,121.2 l 94.3,-78.8 c 25.8,-34.3 41.1,-56.1 41.1,-56.1 l 2.9,19.4 -0.4,-139.2"
         style="fill:#f59616;fill-opacity:1;fill-rule:nonzero;stroke:none"
         id="path254" />
      <path
         d="m 10410,13379.5 c 0,0 -15.3,21.8 -41.1,56.1 l 44,-36.7 -2.9,-19.4"
         style="fill:#f6a514;fill-opacity:1;fill-rule:nonzero;stroke:none"
         id="path256" />
      <path
         d="m 10032.1,13570.6 c -44.37,34.5 -91.08,69 -132.06,109 -16.56,16 -27.38,35.7 -20.74,47.1 6.4,11.1 32.73,-4.9 38.43,6.7 5.79,12.8 -25.31,41.8 -17.14,53 8.98,12.3 41.05,-17.3 57.18,-29.4 12.5,-9.2 66.33,-53 63.93,-32.7 -1.9,16.3 -38.15,45.4 -52.32,58.9 -15.67,15 -43.48,35.5 -50.94,54 -13.83,34.4 24.65,6.7 41.33,-6.1 26.13,-20.2 52.43,-40.9 78.43,-62.9 32.1,-27.3 66.8,-48.8 99.1,-75.2 22.7,-18.7 44.6,-40.4 66.6,-61.2 16.2,-15.7 40.4,-51.3 10,-40.7 -10.9,3.8 -23.6,13.4 -34.6,21.3 -8.3,5.8 -21.1,18.8 -29.7,21.8 -28.4,10 7.9,-33.3 19.2,-44 10.2,-9.8 19.6,-17.5 22.1,-28.7 2.1,-10.6 -1.8,-14.3 -13,-7.4 -11.8,7.3 -19.1,18.1 -32,23.5 -18.2,8 -10.8,-1.7 -3.1,-13.8 1.8,-2.6 4.6,-5.3 6.9,-7.5 -2.7,-14.4 -102,69.8 -70.3,15.8 9,-15.3 92.8,-58.5 93.5,-78.7 0.9,-20.3 -104.5,48.9 -140.8,77.2"
         style="fill:#fddd10;fill-opacity:1;fill-rule:nonzero;stroke:none"
         id="path258" />
      <path
         d="m 10519.6,13232.5 c -14.4,-19.9 -126.8,-15.6 -138.9,3.2 -12,18.7 -16.2,182.8 4.5,200.8 6.9,5.9 22.4,9.2 40.8,10.4 9.5,0.8 17.9,-20.8 28.1,-21.1 10.9,-0.5 23.3,20.3 33,18.9 17.5,-2.5 31.7,-6.4 37.2,-11.3 16.8,-15.2 10,-180.9 -4.7,-200.9"
         style="fill:#f68712;fill-opacity:1;fill-rule:nonzero;stroke:none"
         id="path260" />
      <path
         d="m 10510.8,13230.7 c -12.6,-17.1 -110.8,-13.4 -121.3,2.8 -10.6,16.1 -14.1,157.9 3.8,173.4 5.9,5.2 19.6,7.9 35.7,9.1 8.3,0.5 15.7,-18.1 24.5,-18.4 9.5,-0.4 20.3,17.6 28.8,16.4 15.2,-2.2 27.7,-5.6 32.4,-9.8 14.7,-13.1 8.8,-156.2 -3.9,-173.5"
         style="fill:#fbc713;fill-opacity:1;fill-rule:nonzero;stroke:none"
         id="path262" />
      <path
         d="m 10399.6,13359.2 c -0.8,-33.8 -3.1,-69 7.2,-98.1 1.4,-3.8 3,-15.4 6.9,-17.3 10.5,-5.2 5.2,6.8 11.1,14.1 15,19.3 7.1,-5.4 20.9,-12.2 17.7,-8.7 6.1,92.2 31,23.5 5.3,-14.5 13.7,-31.6 20.8,-8.7 4.5,14.8 0.5,39.4 1.5,55.4 1.4,24.2 10.2,52.6 -13.9,55.8 -25,3.1 -12.7,-29 -29.9,-42.7 -8.1,11.4 -6.9,30.6 -19.4,39.1 -14.9,10.3 -15.9,-6.6 -15.5,-25.5 -10.3,0.9 -7.6,30.5 -18.8,37.1 l -1.9,-20.5"
         style="fill:#fddd10;fill-opacity:1;fill-rule:nonzero;stroke:none"
         id="path264" />
      <path
         d="m 10396.8,11443.9 c -46.6,0 -87.8,13.2 -101.4,63.5 -24.5,89.6 -0.6,203.3 -10.2,296.3 -28.3,280.8 -35.6,568.6 -35.6,852 0,0 152.8,166.3 189,187.5 10.5,6.2 20.1,8.9 28.8,8.9 51.4,0 74.2,-95.3 107.5,-140.5 21,-28.5 65.9,-58.7 79.2,-90.2 16.7,-39.3 -4.2,-92.8 -6.6,-132.7 -8.8,-141.3 -12.3,-282 -20,-423.8 -10.7,-196.5 -3.8,-422.3 -72.5,-602.4 -16.9,-4.8 -32.8,-3.3 -50.4,-5.9 -32.3,-4.7 -71.7,-12.7 -107.8,-12.7"
         style="fill:#f9a822;fill-opacity:1;fill-rule:nonzero;stroke:none"
         id="path266" />
      <path
         d="m 11259.3,11553.9 c -143.8,0 -314.7,132.7 -368.2,244.6 -10.7,22.4 -19.6,45.9 -26.8,70.3 l 40.1,57.7 -53.3,-2.5 c -27.2,146.1 -1.3,312.2 58,437.1 8.6,18.1 19.2,35.8 31.2,53.3 l 26.2,-25.6 -6.2,-36.2 32.4,17.1 32.6,-17.1 -6.2,36.2 26.3,25.6 -36.3,5.3 -16.4,32.9 -16.1,-32.9 -36.2,-5.2 c 87,127.1 245.3,241.2 212.7,404.4 -8.3,40.9 -67.4,77.7 -52.7,117.7 11.4,31 52.9,36.1 84.6,36.1 6.9,0 13.3,-0.2 18.8,-0.5 59.6,-3.1 119.5,-6.3 177.9,-15.1 l -15.1,-30.5 54.8,10.7 39.9,-39.1 5,41.3 c 54.3,-17.5 68.8,-64.4 69.3,-116.5 l -33.3,0.2 24.6,-32.3 -12.6,-38.6 16.7,5.8 c -1.4,-11 -3,-21.7 -4.5,-32 -11.9,-84 -16.5,-204.7 -56.3,-280.5 l -9.7,19.6 -16.2,-33 -36.4,-5.3 21.2,-20.5 c -23.1,-12.5 -48.1,-20.6 -61,-42.7 -20.6,-35.2 13.8,-91.9 28.4,-121.5 35.1,-72.6 21.6,-165.9 21.6,-249.9 0,-113.6 -13.1,-220.1 -40.9,-326.5 l -7.6,-18.1 -8.2,9.5 -9.6,-45.5 -43.1,-17.9 30.7,-17.7 -3,-7.2 c -24.1,-10.3 -50.1,-15 -77.1,-15 m -9.5,442.3 -20.1,-73.5 -71.9,-25.1 63.6,-41.9 1.6,-76.2 59.7,47.7 72.8,-22.1 -26.8,71.3 43.5,62.7 -76.1,-3.6 -46.3,60.7 m -225,54.4 31.7,-30.6 5.1,43.8 38.9,20.5 -40,18.4 -7.7,43.4 -29.8,-32.4 -43.7,6.2 21.8,-38.4 -19.4,-39.6 43.1,8.7 m 199.5,167.8 39.9,-39.1 6.8,55.4 49.4,25.9 -50.6,23.5 -9.2,55.1 -38.1,-40.9 -55.4,8.3 27.2,-48.9 -24.8,-50 54.8,10.7 m 64.4,562.7 -30.6,-91.1 -92.5,-26.4 77.3,-57.3 -3.5,-96 78.4,55.7 90.2,-32.9 -28.7,91.6 59.1,75.7 -95.9,1 -53.8,79.7"
         style="fill:#27a2ae;fill-opacity:1;fill-rule:nonzero;stroke:none"
         id="path268" />
      <path
         d="m 11025.3,12352.6 -32.6,17.1 -32.4,-17.1 6.2,36.2 -26.2,25.6 c 0,0 0,0.1 0.1,0.1 l 36.2,5.2 16.1,32.9 16.4,-32.9 36.3,-5.3 -26.3,-25.6 6.2,-36.2"
         style="fill:#5ebfcd;fill-opacity:1;fill-rule:nonzero;stroke:none"
         id="path270" />
      <path
         d="m 11056.5,12020 -31.7,30.6 -43.1,-8.7 19.4,39.6 -21.8,38.4 43.7,-6.2 29.8,32.4 7.7,-43.4 40,-18.4 -38.9,-20.5 -5.1,-43.8"
         style="fill:#5ebfcd;fill-opacity:1;fill-rule:nonzero;stroke:none"
         id="path272" />
      <path
         d="m 10864.3,11868.8 c -5.3,18 -9.7,36.5 -13.2,55.2 l 53.3,2.5 -40.1,-57.7"
         style="fill:#5ebfcd;fill-opacity:1;fill-rule:nonzero;stroke:none"
         id="path274" />
      <path
         d="m 11461.3,12898.2 -39.9,39.1 -54.8,-10.7 15.1,30.5 c 26.1,-3.9 51.8,-8.9 77.2,-15.4 2.5,-0.7 5,-1.4 7.4,-2.2 l -5,-41.3"
         style="fill:#5ebfcd;fill-opacity:1;fill-rule:nonzero;stroke:none"
         id="path276" />
      <path
         d="m 11264.2,12179.3 -39.9,39.1 -54.8,-10.7 24.8,50 -27.2,48.9 55.4,-8.3 38.1,40.9 9.2,-55.1 50.6,-23.5 -49.4,-25.9 -6.8,-55.4"
         style="fill:#5ebfcd;fill-opacity:1;fill-rule:nonzero;stroke:none"
         id="path278" />
      <path
         d="m 11514.3,12752.3 12.6,38.6 -24.6,32.3 33.3,-0.2 c 0.2,-21.3 -1.9,-43.5 -4.6,-64.9 l -16.7,-5.8"
         style="fill:#5ebfcd;fill-opacity:1;fill-rule:nonzero;stroke:none"
         id="path280" />
      <path
         d="m 11239.4,12510.3 3.5,96 -77.3,57.3 92.5,26.4 30.6,91.1 53.8,-79.7 95.9,-1 -59.1,-75.7 28.7,-91.6 -90.2,32.9 -78.4,-55.7"
         style="fill:#5ebfcd;fill-opacity:1;fill-rule:nonzero;stroke:none"
         id="path282" />
      <path
         d="m 11429.1,12406.4 -21.2,20.5 36.4,5.3 16.2,33 9.7,-19.6 c -0.8,-1.4 -1.6,-2.8 -2.3,-4.2 -9.5,-17 -23.8,-26.9 -38.8,-35"
         style="fill:#5ebfcd;fill-opacity:1;fill-rule:nonzero;stroke:none"
         id="path284" />
      <path
         d="m 11223,11779.5 -1.6,76.2 -63.6,41.9 71.9,25.1 20.1,73.5 46.3,-60.7 76.1,3.6 -43.5,-62.7 26.8,-71.3 -72.8,22.1 -59.7,-47.7"
         style="fill:#5ebfcd;fill-opacity:1;fill-rule:nonzero;stroke:none"
         id="path286" />
      <path
         d="m 11339.4,11576.1 -30.7,17.7 43.1,17.9 9.6,45.5 8.2,-9.5 -30.2,-71.6"
         style="fill:#5ebfcd;fill-opacity:1;fill-rule:nonzero;stroke:none"
         id="path288" />
      <path
         d="m 9905.76,11465.7 c -29.36,0 -60.41,2.9 -89.69,5.7 -29.26,2.9 -56.75,5.8 -78.98,5.8 -2.71,0 -5.33,-0.1 -7.87,-0.2 l -91.88,10.2 c 6.83,18.3 7.98,40.7 5.43,65.3 l 13.17,-3.8 14.8,-44.2 25.98,38.6 46.64,0.3 -28.48,36.7 14.1,44.4 -43.75,-15.8 -37.85,27.1 1.45,-46.5 -10.47,-7.7 c -12.67,65.2 -43.68,140.4 -62.39,198.1 l 30.47,-1.6 -43.16,62.8 27.19,71.2 -40.42,-12 c -15.86,109.2 -18.77,219 -44.35,328.4 -20.3,86.7 -19.25,179.6 -25.29,269.4 l 3.46,-0.4 -3.87,6.4 c -2.3,32.4 -5.61,64.3 -11.25,95.3 -2.45,13.6 -4.93,27.3 -7.38,41.2 l 12.15,26.9 -16.2,-3.8 c -12.22,70.7 -23.3,143.7 -27.95,212.7 l 19.11,-11.3 -6.53,55.5 41.92,36.9 -39.28,7.8 c 20.1,30 56.48,43.5 97.64,43.5 17.55,0 35.96,-2.5 54.37,-7.1 57.51,-14.6 108.63,-22.4 162.93,-27.7 l 7.19,-7.8 -12.27,-54.5 50.79,23.4 48.08,-28.4 -6.72,55.4 5.34,4.7 c 31.4,-2 95.27,-6.4 113.29,-28.7 38.17,-47.8 -33.51,-65.7 -67.65,-73.3 -51.72,-11.6 -253.71,-41.7 -220.82,-118.2 6.02,-14 17.95,-25.6 33.33,-35.7 l -4.7,-54.9 -83.24,-47.7 88.55,-37.2 19.58,-94.1 62.85,72.8 95.42,-10.5 -49.8,82.2 11.9,26.4 c 12.77,-6.5 24.05,-13.4 32.83,-21.3 32.81,-28.9 52.69,-64.4 65.19,-103.3 12.52,-38.6 19.56,-46.9 39.3,-64.7 l -8.71,-0.9 -23.59,28.2 -7.86,-35.8 -33.98,-13.8 31.52,-18.7 2.62,-36.6 27.38,24.4 35.65,-9 -14.55,33.7 8.35,13.3 c 2.7,-2.5 5.7,-5.3 8.8,-8.3 65.3,-61.7 55.9,-174.1 56.8,-262.9 l -4.5,-8.3 -43.9,-4.4 30.1,-32.1 -9.3,-43.1 29.4,13.8 c 0,-96.9 -11.5,-196.3 -11.3,-294.2 0.1,-51.4 -10.6,-97.6 -15.6,-148 -1,-9.6 -1.2,-20.4 -1.4,-31.8 l -27.9,-20.6 27.6,-8 c -0.4,-24.1 -1.9,-48.7 -8.6,-68.6 l -44.92,-25 -52.7,26.2 11.18,-57.7 -2.15,-2.2 c -12.9,-1.7 -26.59,-2.3 -40.65,-2.3 m -204.12,324.1 -3.91,-29.4 -26.48,-13.5 26.68,-12.8 4.81,-29.3 20.43,21.5 29.29,-4.7 -14.1,26.2 13.48,26.4 -29.26,-5.4 -20.94,21 m 161.25,190.3 -2.03,-76.3 -64.02,-41.4 72.03,-25.5 19.57,-73.7 46.48,60.5 76.08,-4 -43.11,62.8 27.34,71.2 -73.08,-21.6 -59.26,48 m -185.04,81.2 38.01,-22.3 -5.31,43.8 32.81,29.4 -43.36,8.2 -17.54,40.3 -21.37,-38.6 -43.83,-4.3 30.2,-32.2 -9.41,-43 39.8,18.7 m 197.58,118.9 v 0 l -5.51,43.8 33.05,29.3 -43.36,8.3 -17.66,40.3 -21.25,-38.5 -43.82,-4.5 30,-32.1 -9.34,-43 39.84,18.7 38.05,-22.3 m -324.34,263.9 -8.08,-35.9 -33.91,-13.7 31.56,-18.6 2.54,-36.7 27.54,24.3 35.7,-8.8 -14.8,33.6 19.53,31.1 -36.6,-3.4 -23.48,28.1 m 9.18,405.2 -14.68,-38 -39.42,-9.6 31.68,-25.5 -3.24,-40.5 34.14,22.2 37.69,-15.5 -10.66,39.2 26.37,31 -40.67,2.1 -21.21,34.6"
         style="fill:#27a2ae;fill-opacity:1;fill-rule:nonzero;stroke:none"
         id="path290" />
      <path
         d="m 9702.74,11704.8 -4.81,29.3 -26.68,12.8 26.48,13.5 3.91,29.4 20.94,-21 29.26,5.4 -13.48,-26.4 14.1,-26.2 -29.29,4.7 -20.43,-21.5"
         style="fill:#5ebfcd;fill-opacity:1;fill-rule:nonzero;stroke:none"
         id="path292" />
      <path
         d="m 9448.48,12864.9 -19.11,11.3 c -0.43,6.5 -0.81,12.9 -1.13,19.3 -1.5,29.2 4.69,52.1 16.35,69.6 l 39.28,-7.8 -41.92,-36.9 6.53,-55.5"
         style="fill:#5ebfcd;fill-opacity:1;fill-rule:nonzero;stroke:none"
         id="path294" />
      <path
         d="m 9534.61,12735.7 3.24,40.5 -31.68,25.5 39.42,9.6 14.68,38 21.21,-34.6 40.67,-2.1 -26.37,-31 10.66,-39.2 -37.69,15.5 -34.14,-22.2"
         style="fill:#5ebfcd;fill-opacity:1;fill-rule:nonzero;stroke:none"
         id="path296" />
      <path
         d="m 9483.87,12497.5 -3.46,0.4 c -0.13,2 -0.27,4 -0.41,6 l 3.87,-6.4 m -22.5,142.9 c -1.36,7.7 -2.71,15.4 -4.05,23.1 l 16.2,3.8 -12.15,-26.9"
         style="fill:#5ebfcd;fill-opacity:1;fill-rule:nonzero;stroke:none"
         id="path298" />
      <path
         d="m 9543.2,12339.2 -2.54,36.7 -31.56,18.6 33.91,13.7 8.08,35.9 23.48,-28.1 36.6,3.4 -19.53,-31.1 14.8,-33.6 -35.7,8.8 -27.54,-24.3"
         style="fill:#5ebfcd;fill-opacity:1;fill-rule:nonzero;stroke:none"
         id="path300" />
      <path
         d="m 9715.86,12039 -38.01,22.3 -39.8,-18.7 9.41,43 -30.2,32.2 43.83,4.3 21.37,38.6 17.54,-40.3 43.36,-8.2 -32.81,-29.4 5.31,-43.8"
         style="fill:#5ebfcd;fill-opacity:1;fill-rule:nonzero;stroke:none"
         id="path302" />
      <path
         d="m 9875.43,12180.2 -38.05,22.3 -39.84,-18.7 9.34,43 -30,32.1 43.82,4.5 21.25,38.5 17.66,-40.3 43.36,-8.3 -33.05,-29.3 5.51,-43.8"
         style="fill:#5ebfcd;fill-opacity:1;fill-rule:nonzero;stroke:none"
         id="path304" />
      <path
         d="m 9606.44,11778.1 -30.47,1.6 c -4.79,14.7 -8.78,28.4 -11.44,40.4 -5.95,26.6 -10.6,53.3 -14.48,80 l 40.42,12 -27.19,-71.2 43.16,-62.8"
         style="fill:#5ebfcd;fill-opacity:1;fill-rule:nonzero;stroke:none"
         id="path306" />
      <path
         d="m 9670.74,11504.5 -14.8,44.2 -13.17,3.8 c -0.97,9.4 -2.48,19.1 -4.41,29.1 l 10.47,7.7 -1.45,46.5 37.85,-27.1 43.75,15.8 -14.1,-44.4 28.48,-36.7 -46.64,-0.3 -25.98,-38.6"
         style="fill:#5ebfcd;fill-opacity:1;fill-rule:nonzero;stroke:none"
         id="path308" />
      <path
         d="m 9853.32,12906.5 -48.08,28.4 -50.79,-23.4 12.27,54.5 -7.19,7.8 c 27.73,-2.8 56.29,-4.9 86.95,-6.8 1.68,-0.1 3.51,-0.3 5.46,-0.4 l -5.34,-4.7 6.72,-55.4"
         style="fill:#5ebfcd;fill-opacity:1;fill-rule:nonzero;stroke:none"
         id="path310" />
      <path
         d="m 9730.28,12476.8 -19.58,94.1 -88.55,37.2 83.24,47.7 4.7,54.9 c 38.25,-25.1 97.77,-41.3 140.56,-63 l -11.9,-26.4 49.8,-82.2 -95.42,10.5 -62.85,-72.8"
         style="fill:#5ebfcd;fill-opacity:1;fill-rule:nonzero;stroke:none"
         id="path312" />
      <path
         d="m 9947.97,12380.8 -2.62,36.6 -31.52,18.7 33.98,13.8 7.86,35.8 23.59,-28.2 8.71,0.9 c 4.77,-4.3 10.28,-9.2 16.83,-15.2 l -8.35,-13.3 14.55,-33.7 -35.65,9 -27.38,-24.4"
         style="fill:#5ebfcd;fill-opacity:1;fill-rule:nonzero;stroke:none"
         id="path314" />
      <path
         d="m 10042.8,12084.1 9.3,43.1 -30.1,32.1 43.9,4.4 4.5,8.3 c 0.1,-9.1 0.3,-18.1 0.7,-26.6 0.8,-15.8 1.1,-31.6 1.1,-47.5 l -29.4,-13.8"
         style="fill:#5ebfcd;fill-opacity:1;fill-rule:nonzero;stroke:none"
         id="path316" />
      <path
         d="m 9888.44,11763.2 -19.57,73.7 -72.03,25.5 64.02,41.4 2.03,76.3 59.26,-48 73.08,21.6 -27.34,-71.2 43.11,-62.8 -76.08,4 -46.48,-60.5"
         style="fill:#5ebfcd;fill-opacity:1;fill-rule:nonzero;stroke:none"
         id="path318" />
      <path
         d="m 10043.6,11595.3 -27.6,8 27.9,20.6 c -0.1,-9.3 -0.1,-18.9 -0.3,-28.6"
         style="fill:#5ebfcd;fill-opacity:1;fill-rule:nonzero;stroke:none"
         id="path320" />
      <path
         d="m 9946.41,11468 2.15,2.2 -11.18,57.7 52.7,-26.2 44.92,25 c -2.5,-7.4 -5.7,-14.2 -9.8,-20.1 -16.4,-23.4 -44.94,-34.3 -78.79,-38.6"
         style="fill:#5ebfcd;fill-opacity:1;fill-rule:nonzero;stroke:none"
         id="path322" />
      <path
         d="m 11465.7,13066.1 c -42.6,0 -93.2,10.6 -118.9,12.8 -33.4,3 -143.6,0.2 -247.2,8.9 l -4.6,26 26.4,25.6 -36.2,5.3 -16.3,32.9 -16.2,-32.9 -36.4,-5.3 26.3,-25.6 -3.3,-19.3 c -88.1,12.6 -157.3,37.3 -146.7,86.8 l 66.3,15.2 c 86,19.5 192.9,29.5 265.5,95.7 20.3,18.5 37.1,45.8 53.4,69.6 l 41.1,-30.5 -3.4,-96 78.3,55.6 48.3,-17.6 c 4.1,-8.8 8.3,-17.4 13.1,-25.7 16.9,-29.2 47,-59.6 65.5,-90 l -0.3,-0.4 -36.3,-5.3 26.1,-25.6 -6.2,-36.1 32.6,17 1,-0.5 c -0.8,-31.8 -33.1,-40.6 -71.9,-40.6 m -387.4,23.7 c -5.2,0.5 -10.4,1.1 -15.6,1.7 l 6.2,3.2 9.4,-4.9"
         style="fill:#4ec4c4;fill-opacity:1;fill-rule:nonzero;stroke:none"
         id="path324" />
      <path
         d="m 11099.6,13087.8 c -7.2,0.6 -14.3,1.3 -21.3,2 l -9.4,4.9 -6.2,-3.2 c -7.9,0.9 -15.8,1.9 -23.4,3 l 3.3,19.3 -26.3,25.6 36.4,5.3 16.2,32.9 16.3,-32.9 36.2,-5.3 -26.4,-25.6 4.6,-26"
         style="fill:#8bd8db;fill-opacity:1;fill-rule:nonzero;stroke:none"
         id="path326" />
      <path
         d="m 11315.5,13235.3 3.4,96 -41.1,30.5 c 18.7,27.1 36.9,49.8 59.1,49.8 17.5,0 37.5,-14 62.3,-50.6 18,-26.6 29.2,-58.1 42.9,-87.7 l -48.3,17.6 -78.3,-55.6"
         style="fill:#8bd8db;fill-opacity:1;fill-rule:nonzero;stroke:none"
         id="path328" />
      <path
         d="m 11504,13090.2 6.2,36.1 -26.1,25.6 36.3,5.3 0.3,0.4 c 4.5,-7.4 8.3,-14.8 11.1,-22.3 4.2,-11.2 6,-20.6 5.8,-28.6 l -1,0.5 -32.6,-17"
         style="fill:#8bd8db;fill-opacity:1;fill-rule:nonzero;stroke:none"
         id="path330" />
      <path
         d="m 9536.36,13094.5 c -0.36,0 -0.72,0 -1.09,0 l -127.5,5.2 c 28.53,4.3 67.04,69.7 96.19,128.9 l 56,-6.1 -33.27,54.9 c 6.43,14.5 11.58,26.8 14.95,35.3 13.23,32.9 12.76,84.1 53.54,84.1 3.53,0 7.36,-0.4 11.54,-1.2 35.86,-7 52.34,-60.5 77.58,-85.4 31.38,-31 71.46,-51 113.36,-66.6 l 8.67,-41.8 25.84,29.9 c 20.39,-6.6 40.77,-12.6 60.37,-18.7 19.9,-6.3 85.64,-9.8 134.46,-24 l -3.1,-14.2 -34.06,-13.7 31.56,-18.7 2.7,-36.6 27.3,24.3 25.9,-6.4 c -1.6,-3 -3.6,-6 -6,-9.1 -0.2,-1.4 -0.6,-2.7 -1,-3.9 -28.9,-10.4 -63.9,-13.5 -100.47,-13.5 -56.38,0 -116.57,7.5 -164.01,7.5 -44.73,0 -88.48,-2.5 -132.12,-4.9 l -5.89,13.4 19.5,31.2 -36.64,-3.5 -23.56,28.2 -8.01,-35.9 -33.9,-13.8 31.56,-18.6 0.28,-4.1 c -26.72,-1.3 -53.55,-2.2 -80.68,-2.2 m 545.34,39.1 -9.2,21.3 4.5,7.2 c 6.1,-7.9 8.2,-17.3 4.7,-28.5"
         style="fill:#4ec4c4;fill-opacity:1;fill-rule:nonzero;stroke:none"
         id="path332" />
      <path
         d="m 9559.96,13222.5 -56,6.1 c 8.54,17.4 16.28,34.2 22.73,48.8 l 33.27,-54.9"
         style="fill:#8bd8db;fill-opacity:1;fill-rule:nonzero;stroke:none"
         id="path334" />
      <path
         d="m 9617.04,13096.7 -0.28,4.1 -31.56,18.6 33.9,13.8 8.01,35.9 23.56,-28.2 36.64,3.5 -19.5,-31.2 5.89,-13.4 c -18.88,-1.1 -37.74,-2.2 -56.66,-3.1"
         style="fill:#8bd8db;fill-opacity:1;fill-rule:nonzero;stroke:none"
         id="path336" />
      <path
         d="m 9806.33,13201.8 -8.67,41.8 c 11.41,-4.3 22.96,-8.2 34.51,-11.9 l -25.84,-29.9"
         style="fill:#8bd8db;fill-opacity:1;fill-rule:nonzero;stroke:none"
         id="path338" />
      <path
         d="m 10024.1,13105.8 -2.7,36.6 -31.56,18.7 34.06,13.7 3.1,14.2 c 22,-6.4 40.6,-15 50,-26.9 l -4.5,-7.2 9.2,-21.3 c -1,-3.2 -2.5,-6.5 -4.4,-9.9 l -25.9,6.4 -27.3,-24.3"
         style="fill:#8bd8db;fill-opacity:1;fill-rule:nonzero;stroke:none"
         id="path340" />
      <path
         d="m 11707.3,12052.2 c -80.8,-156.1 -403.7,-205 -561.9,-143.6 -174.2,67.5 -209.8,329.3 -74.2,474.6 84,90 335.8,116.2 526.1,83.9 93,-15.8 200.3,-240.3 110,-414.9"
         style="fill:#000000;fill-opacity:1;fill-rule:nonzero;stroke:none"
         id="path342" />
      <path
         d="m 12000.7,12062.7 c -30.2,-99.1 -267.7,-129.4 -319.3,-86.4 -51.7,43 -116.7,360.3 -95.4,460.6 21.1,100.2 189,186.3 270.8,138.9 81.8,-47.3 174.1,-414.2 143.9,-513.1"
         style="fill:#ffffff;fill-opacity:1;fill-rule:nonzero;stroke:none"
         id="path344" />
      <path
         d="m 9120.7,12121.2 c 80.67,-156.1 403.6,-205.1 561.76,-143.7 174.26,67.6 209.84,329.3 74.34,474.7 -84.1,90 -335.82,116.2 -526.1,83.9 -93.16,-15.8 -200.27,-240.3 -110,-414.9"
         style="fill:#000000;fill-opacity:1;fill-rule:nonzero;stroke:none"
         id="path346" />
      <path
         d="m 8827.3,12131.6 c 30.24,-99.1 267.47,-129.3 319.26,-86.3 51.6,43 116.6,360.3 95.47,460.6 -21.33,100.1 -189.14,186.2 -271.01,138.9 -81.8,-47.4 -173.83,-414.2 -143.72,-513.2"
         style="fill:#ffffff;fill-opacity:1;fill-rule:nonzero;stroke:none"
         id="path348" />
      <path
         d="m 5742.27,8360.2 h 9457.93 v 1999.1 H 5742.27 Z"
         style="fill:#ce5d54;fill-opacity:1;fill-rule:nonzero;stroke:none"
         id="path350" />
      <path
         d="M 6206.13,2054.9 H 14736.1 V 8360.2 H 6206.13 Z"
         style="fill:#c5393d;fill-opacity:1;fill-rule:nonzero;stroke:none"
         id="path352" />
      <path
         d="m 6206.13,7004 h 8529.97 v 285.5 H 6206.13 Z"
         style="fill:#812236;fill-opacity:1;fill-rule:nonzero;stroke:none"
         id="path354" />
      <path
         d="m 6206.13,5731.1 h 8529.97 v 285.5 H 6206.13 Z"
         style="fill:#812236;fill-opacity:1;fill-rule:nonzero;stroke:none"
         id="path356" />
      <path
         d="m 6206.13,4458.1 h 8529.97 v 285.5 H 6206.13 Z"
         style="fill:#812236;fill-opacity:1;fill-rule:nonzero;stroke:none"
         id="path358" />
      <path
         d="m 6206.13,3185.2 h 8529.97 v 285.5 H 6206.13 Z"
         style="fill:#812236;fill-opacity:1;fill-rule:nonzero;stroke:none"
         id="path360" />
      <path
         d="m 6979.47,7146.8 h 285.523 V 8360.2 H 6979.47 Z"
         style="fill:#812236;fill-opacity:1;fill-rule:nonzero;stroke:none"
         id="path362" />
      <path
         d="m 9287.39,7146.8 h 285.531 V 8360.2 H 9287.39 Z"
         style="fill:#812236;fill-opacity:1;fill-rule:nonzero;stroke:none"
         id="path364" />
      <path
         d="m 11595.4,7146.8 h 285.496 V 8360.2 H 11595.4 Z"
         style="fill:#812236;fill-opacity:1;fill-rule:nonzero;stroke:none"
         id="path366" />
      <path
         d="m 13903.4,7146.8 h 285.504 V 8360.2 H 13903.4 Z"
         style="fill:#812236;fill-opacity:1;fill-rule:nonzero;stroke:none"
         id="path368" />
      <path
         d="m 8133.53,5933.3 h 285.52 v 1213.5 h -285.52 z"
         style="fill:#812236;fill-opacity:1;fill-rule:nonzero;stroke:none"
         id="path370" />
      <path
         d="m 10441.5,5933.3 h 285.5 v 1213.5 h -285.5 z"
         style="fill:#812236;fill-opacity:1;fill-rule:nonzero;stroke:none"
         id="path372" />
      <path
         d="m 12749.4,5933.3 h 285.504 V 7146.8 H 12749.4 Z"
         style="fill:#812236;fill-opacity:1;fill-rule:nonzero;stroke:none"
         id="path374" />
      <path
         d="m 6979.47,4600.8 h 285.523 V 5814.3 H 6979.47 Z"
         style="fill:#812236;fill-opacity:1;fill-rule:nonzero;stroke:none"
         id="path376" />
      <path
         d="m 9287.4,4600.8 h 285.52 V 5814.3 H 9287.4 Z"
         style="fill:#812236;fill-opacity:1;fill-rule:nonzero;stroke:none"
         id="path378" />
      <path
         d="m 11595.4,4600.8 h 285.496 V 5814.3 H 11595.4 Z"
         style="fill:#812236;fill-opacity:1;fill-rule:nonzero;stroke:none"
         id="path380" />
      <path
         d="m 13903.4,4600.8 h 285.504 V 5814.3 H 13903.4 Z"
         style="fill:#812236;fill-opacity:1;fill-rule:nonzero;stroke:none"
         id="path382" />
      <path
         d="m 8133.53,3387.4 h 285.52 v 1213.4 h -285.52 z"
         style="fill:#812236;fill-opacity:1;fill-rule:nonzero;stroke:none"
         id="path384" />
      <path
         d="m 10441.5,3387.4 h 285.5 v 1213.4 h -285.5 z"
         style="fill:#812236;fill-opacity:1;fill-rule:nonzero;stroke:none"
         id="path386" />
      <path
         d="m 12749.4,3387.4 h 285.504 V 4600.8 H 12749.4 Z"
         style="fill:#812236;fill-opacity:1;fill-rule:nonzero;stroke:none"
         id="path388" />
      <path
         d="m 6979.47,2054.9 h 285.523 V 3268.4 H 6979.47 Z"
         style="fill:#812236;fill-opacity:1;fill-rule:nonzero;stroke:none"
         id="path390" />
      <path
         d="m 9287.4,2054.9 h 285.52 V 3268.4 H 9287.4 Z"
         style="fill:#812236;fill-opacity:1;fill-rule:nonzero;stroke:none"
         id="path392" />
      <path
         d="m 11595.4,2054.9 h 285.496 V 3268.4 H 11595.4 Z"
         style="fill:#812236;fill-opacity:1;fill-rule:nonzero;stroke:none"
         id="path394" />
      <path
         d="m 13903.4,2054.9 h 285.504 V 3268.4 H 13903.4 Z"
         style="fill:#812236;fill-opacity:1;fill-rule:nonzero;stroke:none"
         id="path396" />
      <path
         d="m 13903.4,2054.9 h -1199.1 c 70,183.9 118.3,380.5 139.9,592.1 18.9,184.7 20.2,364 2.1,538.2 h 1057.1 V 2054.9 m 54.1,1415.8 h -922.6 v 987.4 h 712.2 c 30.3,-91.6 59.5,-185.3 86.1,-284.3 60.2,-224.6 100.9,-458.7 124.3,-703.1 m -1208.1,170.8 c -60.4,183.2 -146.7,360.5 -261.4,532.3 -66,99 -138.8,192.7 -214.3,284.3 h 475.7 v -816.6 m 899.7,1102.1 h -1619.2 c -50.6,59 -100.6,118.3 -149,178.9 v 808.6 h 1571.8 c -7.4,-133.1 -2.4,-267.4 27,-405.1 45.8,-213.9 106.6,-399.9 169.4,-582.4 m -2053.7,607.9 c -61.9,128.8 -71.8,254.7 -54.4,379.6 h 54.4 v -379.6 m 1888,665.1 h -448.5 V 7004 h 487 c 11.2,-59 20,-123 26,-192.2 23.6,-277.8 -27.5,-537.3 -64.5,-795.2 m -734,0 h -1132.1 c 92.1,257.9 219.3,517.4 160.1,795.2 -14.7,69.2 -36.5,133.2 -64.4,192.2 h 1036.4 v -987.4 m 685.3,1272.9 H 11880.9 V 7692 c 125.8,-26.5 252.4,-37.8 379.6,-40.2 12.5,-0.2 25,-0.3 37.4,-0.3 74.1,0 148.7,3.8 223.5,7.6 74.7,3.7 149.6,7.5 224.4,7.5 114.3,0 228.3,-8.8 340.8,-40.1 124.4,-34.5 255.9,-134.8 348.1,-337 m -1839.3,0 h -99.4 c -229.5,202.2 -556.9,302.5 -866.4,337 -280.2,31.3 -563.9,40.1 -848.66,40.1 -69.28,0 -138.68,-0.5 -208.02,-1.4 v 695 h 2022.48 -285.5 v -416.9 c 94.5,-67.6 189.7,-120.6 285.5,-161.6 v -492.2 m -2929.33,362 c -31.02,0 -62.03,0.1 -92.98,0.3 -381.2,2.9 -760.09,18.7 -1135.71,58.3 V 8271 h -115.86 v -547.9 c -18.87,2.2 -37.67,4.5 -56.53,6.9 v 630.2 h 2022.4 v -699.8 c -21.7,-0.5 -43.42,-0.9 -65.11,-1.3 -186.11,-3.8 -371.76,-7.6 -556.21,-7.6 m -1686.6,119.7 c -259.63,42.4 -517.53,98.5 -773.34,172.1 v 416.9 h 773.34 v -589"
         style="fill:#b43135;fill-opacity:1;fill-rule:nonzero;stroke:none"
         id="path398" />
      <path
         d="m 13521.9,7004 h -487 v 142.8 h -285.5 V 7004 H 11713 c -24.1,51.2 -52.8,98.7 -85.3,142.8 h 253.2 v 142.7 h 1553.8 c 36,-78.9 66,-173.4 87.2,-285.5 m -1926.5,183.8 c -30.5,36.4 -63.8,70.3 -99.4,101.7 h 99.4 v -101.7"
         style="fill:#771f2f;fill-opacity:1;fill-rule:nonzero;stroke:none"
         id="path400" />
      <path
         d="m 13452.7,5731.1 h -1571.8 v 83.2 h -285.5 v -83.2 h -54.4 c 13.2,95.5 42.4,190.4 76.3,285.5 h 1132.1 v -83.3 h 285.5 v 83.3 h 448.5 c -13.7,-95.1 -25.4,-190 -30.7,-285.5"
         style="fill:#771f2f;fill-opacity:1;fill-rule:nonzero;stroke:none"
         id="path402" />
      <path
         d="m 13747.1,4458.1 h -712.2 v 142.7 h -285.5 v -142.7 h -475.7 c -79.7,96.5 -162.4,190.5 -243.8,285.5 h 1619.2 c 32.7,-95 66,-189 98,-285.5"
         style="fill:#771f2f;fill-opacity:1;fill-rule:nonzero;stroke:none"
         id="path404" />
      <path
         d="m 13903.4,3185.2 h -1057.1 c -7.1,68.1 -17.2,135.6 -30.3,202.2 h 218.9 v 83.3 h 922.6 c 6.4,-66.7 11.6,-134.1 15.4,-202.3 h -69.5 v -83.2"
         style="fill:#771f2f;fill-opacity:1;fill-rule:nonzero;stroke:none"
         id="path406" />
      <path
         d="m 7264.99,7730 c -95.41,12 -190.57,25.7 -285.52,41.2 v 589 h 285.52 V 7730"
         style="fill:#771f2f;fill-opacity:1;fill-rule:nonzero;stroke:none"
         id="path408" />
      <path
         d="m 9287.39,7660.4 v 699.8 h 285.53 v -695 c -95.2,-1.1 -190.4,-2.9 -285.53,-4.8"
         style="fill:#771f2f;fill-opacity:1;fill-rule:nonzero;stroke:none"
         id="path410" />
      <path
         d="m 11880.9,7146.8 h -253.2 c -10.4,14 -21.2,27.7 -32.3,41 v 101.7 492.2 c 94.6,-40.5 189.8,-69.5 285.5,-89.7 v -402.5 -142.7"
         style="fill:#771f2f;fill-opacity:1;fill-rule:nonzero;stroke:none"
         id="path412" />
      <path
         d="m 13034.9,5933.3 h -285.5 v 1213.5 h 285.5 V 7004 6016.6 5933.3"
         style="fill:#771f2f;fill-opacity:1;fill-rule:nonzero;stroke:none"
         id="path414" />
      <path
         d="m 11880.9,4922.5 c -101.3,126.7 -195.5,258.7 -272.6,403.5 -4.5,8.5 -8.9,17 -12.9,25.5 v 379.6 83.2 h 285.5 v -83.2 -808.6"
         style="fill:#771f2f;fill-opacity:1;fill-rule:nonzero;stroke:none"
         id="path416" />
      <path
         d="M 13034.9,3387.4 H 12816 c -17,85.9 -39.1,170.6 -66.6,254.1 v 816.6 142.7 h 285.5 v -142.7 -987.4 -83.3"
         style="fill:#771f2f;fill-opacity:1;fill-rule:nonzero;stroke:none"
         id="path418" />
      <path
         d="m 13920,2054.9 h -16.6 v 1213.5 h 69.5 c 11.4,-200.2 12.1,-407.1 3.3,-621.4 -8.6,-211.6 -28.1,-408.2 -56.2,-592.1"
         style="fill:#771f2f;fill-opacity:1;fill-rule:nonzero;stroke:none"
         id="path420" />
      <path
         d="m 14736.1,2054.9 h -547.2 v 1130.3 h 547.2 V 2054.9 m 0,1415.8 h -778.6 c -23.4,244.4 -64.1,478.5 -124.3,703.1 -26.6,99 -55.8,192.7 -86.1,284.3 h 989 v -987.4 m 0,1272.9 h -547.2 v 987.5 h 547.2 v -987.5 m -832.7,0 h -254.3 c -62.8,182.5 -123.6,368.5 -169.4,582.4 -29.4,137.7 -34.4,272 -27,405.1 h 450.7 v -987.5 m 832.7,1273 h -1252.7 c 37,257.9 88.1,517.4 64.5,795.2 -6,69.2 -14.8,133.2 -26,192.2 h 1214.2 v -987.4 m 0,1272.9 h -547.2 v 1070.7 h 547.2 V 7289.5 m -832.7,0 h -468.7 c -92.2,202.2 -223.7,302.5 -348.1,337 -112.5,31.3 -226.5,40.1 -340.8,40.1 -74.8,0 -149.7,-3.8 -224.4,-7.5 -74.8,-3.8 -149.4,-7.6 -223.5,-7.6 -12.4,0 -24.9,0.1 -37.4,0.3 -127.2,2.4 -253.8,13.7 -379.6,40.2 v 668.2 h 2022.5 V 7289.5 m -2308,492.2 c -95.8,41 -191,94 -285.5,161.6 v 416.9 h 285.5 v -578.5"
         style="fill:#a52a2e;fill-opacity:1;fill-rule:nonzero;stroke:none"
         id="path422" />
      <path
         d="m 14736.1,7004 v 0 h -1214.2 c -21.2,112.1 -51.2,206.6 -87.2,285.5 h 468.7 v -142.7 h 285.5 v 142.7 h 547.2 V 7004"
         style="fill:#6d1b29;fill-opacity:1;fill-rule:nonzero;stroke:none"
         id="path424" />
      <path
         d="m 14736.1,5731.1 v 0 h -547.2 v 83.2 h -285.5 v -83.2 h -450.7 c 5.3,95.5 17,190.4 30.7,285.5 h 1252.7 v -285.5"
         style="fill:#6d1b29;fill-opacity:1;fill-rule:nonzero;stroke:none"
         id="path426" />
      <path
         d="m 14736.1,4458.1 v 0 h -989 c -32,96.5 -65.3,190.5 -98,285.5 h 254.3 v -142.8 h 285.5 v 142.8 h 547.2 v -285.5"
         style="fill:#6d1b29;fill-opacity:1;fill-rule:nonzero;stroke:none"
         id="path428" />
      <path
         d="m 14736.1,3185.2 v 0 h -547.2 v 83.2 h -216 c -3.8,68.2 -9,135.6 -15.4,202.3 h 778.6 v -285.5"
         style="fill:#6d1b29;fill-opacity:1;fill-rule:nonzero;stroke:none"
         id="path430" />
      <path
         d="m 11880.9,7692 c -95.7,20.2 -190.9,49.2 -285.5,89.7 v 578.5 h 285.5 V 7692"
         style="fill:#6d1b29;fill-opacity:1;fill-rule:nonzero;stroke:none"
         id="path432" />
      <path
         d="m 14188.9,7146.8 h -285.5 v 1213.4 h 285.5 V 7289.5 7146.8"
         style="fill:#6d1b29;fill-opacity:1;fill-rule:nonzero;stroke:none"
         id="path434" />
      <path
         d="m 14188.9,4600.8 h -285.5 v 1213.5 h 285.5 v -83.2 -987.5 -142.8"
         style="fill:#6d1b29;fill-opacity:1;fill-rule:nonzero;stroke:none"
         id="path436" />
      <path
         d="M 14188.9,2054.9 H 13920 c 28.1,183.9 47.6,380.5 56.2,592.1 8.8,214.3 8.1,421.2 -3.3,621.4 h 216 v -83.2 -1130.3"
         style="fill:#6d1b29;fill-opacity:1;fill-rule:nonzero;stroke:none"
         id="path438" />
      <path
         d="m 6322.07,6076.1 h 116.051 v 838.699 H 6322.07 Z"
         style="fill:#d94e4e;fill-opacity:1;fill-rule:nonzero;stroke:none"
         id="path440" />
      <path
         d="m 8530.51,6076.1 h 115.93 v 838.699 h -115.93 z"
         style="fill:#d94e4e;fill-opacity:1;fill-rule:nonzero;stroke:none"
         id="path442" />
      <path
         d="m 7437.38,7334.1 h -115.86 v 389 c 38.58,-4.6 77.22,-8.9 115.86,-13 v -376"
         style="fill:#d94e4e;fill-opacity:1;fill-rule:nonzero;stroke:none"
         id="path444" />
      <path
         d="m 7437.38,7710.1 c -38.64,4.1 -77.28,8.4 -115.86,13 V 8271 h 115.86 v -560.9"
         style="fill:#d04747;fill-opacity:1;fill-rule:nonzero;stroke:none"
         id="path446" />
      <path
         d="m 10814.8,6076.1 h 116 v 838.699 h -116 z"
         style="fill:#d94e4e;fill-opacity:1;fill-rule:nonzero;stroke:none"
         id="path448" />
      <path
         d="m 6342.27,3574.8 h 115.93 v 838.602 h -115.93 z"
         style="fill:#d94e4e;fill-opacity:1;fill-rule:nonzero;stroke:none"
         id="path450" />
      <path
         d="m 8550.58,3574.8 h 115.938 v 838.602 H 8550.58 Z"
         style="fill:#d94e4e;fill-opacity:1;fill-rule:nonzero;stroke:none"
         id="path452" />
      <path
         d="m 10834.8,3574.8 h 116 v 838.602 h -116 z"
         style="fill:#d94e4e;fill-opacity:1;fill-rule:nonzero;stroke:none"
         id="path454" />
      <path
         d="m 7399.49,2200.7 h 115.98 v 838.699 h -115.98 z"
         style="fill:#d94e4e;fill-opacity:1;fill-rule:nonzero;stroke:none"
         id="path456" />
      <path
         d="m 9679.22,2200.7 h 116.051 v 838.699 H 9679.22 Z"
         style="fill:#d94e4e;fill-opacity:1;fill-rule:nonzero;stroke:none"
         id="path458" />
      <path
         d="m 11963.4,2200.7 h 116 v 838.699 h -116 z"
         style="fill:#d94e4e;fill-opacity:1;fill-rule:nonzero;stroke:none"
         id="path460" />
      <path
         d="m 7366.02,4835.8 h 116.09 v 838.801 h -116.09 z"
         style="fill:#d94e4e;fill-opacity:1;fill-rule:nonzero;stroke:none"
         id="path462" />
      <path
         d="m 9645.82,4835.8 h 115.98 v 838.801 h -115.98 z"
         style="fill:#d94e4e;fill-opacity:1;fill-rule:nonzero;stroke:none"
         id="path464" />
      <path
         d="m 6031.21,10757.2 c -909.49,-501.8 -685.78,-2182.8 68.71,-2076.5 546.02,76.8 691.33,725.5 1355.35,678.8 588.4,-41.3 915.36,-450.2 1461.49,-63.3 1106.24,783.4 2258.74,363.5 2902.54,-828.7 235.7,-436.8 686.8,-889.8 1275.9,-635.4 501.8,216.5 442.9,1039.3 757.7,1411.4 416.9,493.2 1023.7,-69.5 1516.7,232.1 546.1,334.1 523.8,975.8 43.8,1349.1 -469.8,365.5 -1217.6,336.8 -1783.7,390.7 -723.8,68.9 -2480.4,-356.8 -4199.54,-374.7 -1887.82,-19.6 -2881.33,202 -3398.95,-83.5"
         style="fill:#e1ecf1;fill-opacity:1;fill-rule:nonzero;stroke:none"
         id="path466" />
      <path
         d="m 6082.58,9166.2 c -67.42,23.6 -130.04,17.9 -192.74,57.1 -46.64,29.3 -83.39,93.2 -104.02,142.4 -47.69,114.1 -81.41,259.8 -104.69,381.3 -6.72,34.9 -56.68,46.3 -79.72,21.1 -148.21,-161.9 -147.19,-372.8 -55.24,-568.6 85,-180.6 322.74,-380.7 536.41,-296 124.92,49.6 133.47,216.1 0,262.7"
         style="fill:#ffffff;fill-opacity:1;fill-rule:nonzero;stroke:none"
         id="path468" />
      <path
         d="m 9025.78,9770.6 c -139.02,3.1 -207.19,-35.6 -330.35,-106.6 -236.99,-136.5 -454.53,-96 -699.41,-9.4 -316.76,112 -622.04,102.5 -901.61,-96.9 -41.17,-29.3 -15.7,-87.7 33.52,-79.5 253.4,42.7 454.77,73 704.45,-12.3 192.58,-65.9 344.89,-142.5 550.9,-160.8 242.81,-21.6 570.12,167.8 704.53,357.2 32.89,46.4 -11.68,107.1 -62.03,108.3"
         style="fill:#ffffff;fill-opacity:1;fill-rule:nonzero;stroke:none"
         id="path470" />
      <path
         d="m 13130.2,8535.1 c -214.9,-11.4 -372.4,-284.9 -596.1,-171.2 -252.3,128.5 -465.3,470.5 -652.3,677.7 -337.1,373.3 -742.4,633.5 -1220.4,789 -49.4,16 -75.6,-55 -34.2,-81 630.2,-395.5 1046.1,-925.9 1544.7,-1461.2 134.4,-144.1 350.2,-321.5 565.6,-267 212.1,53.7 419.9,204.8 457.8,427.9 7.2,40.9 -17.5,88.2 -65.1,85.8"
         style="fill:#ffffff;fill-opacity:1;fill-rule:nonzero;stroke:none"
         id="path472" />
      <path
         d="m 15447,10075.6 c -218.7,-155.6 -401.3,-273.4 -676.8,-288.5 -315.9,-17.3 -598.1,-28.9 -904.8,-126.1 -55.9,-17.7 -48.1,-108 14.2,-105.1 237.2,10.8 436.7,14.2 673.4,-33.7 123.8,-25.1 249.7,-28.3 375.3,-21.3 266.2,14.9 502,175.9 697.1,343.4 126.4,108.4 -42.1,328.3 -178.4,231.3"
         style="fill:#ffffff;fill-opacity:1;fill-rule:nonzero;stroke:none"
         id="path474" />
      <path
         d="m 13691.1,11004.9 c -649.4,240 -1509.8,13.7 -2171,-97.4 -902,-151.7 -1749.94,-276 -2662.21,-135.1 -50.47,7.8 -70.94,-60.1 -21.33,-77.5 758.09,-265.3 1565.94,-170.4 2344.54,-71.9 412.8,52.2 824.3,117.2 1238.7,158.2 414,41.1 836.1,-15.6 1245.7,34.7 107.4,13.2 131.3,149.8 25.6,189"
         style="fill:#ffffff;fill-opacity:1;fill-rule:nonzero;stroke:none"
         id="path476" />
    </g>
  </g>
</svg>
